<svg version="1" xmlns="http://www.w3.org/2000/svg" width="682.667" height="682.667" viewBox="0 0 512.000000 512.000000"><path d="M399.9 41.2c-.1.7-.1 4.5-.1 8.5 0 5.8-.3 7.2-1.6 7.5-1 .2-13.7.4-28.4.3l-26.8-.1-.1 3.6c0 1.9-.1 5.3-.2 7.5l-.2 3.9-4.7.1-4.8.1v-7.3c0-4-.3-7.4-.7-7.4-.5-.1-58.3-.2-128.5-.3C90.2 57.5 76 57.6 75.9 59c0 .8-.1 57.7-.2 126.5-.2 113.5 0 126.1 1.5 136.7 6.7 45.2 25.9 80.6 59.8 109.8 19.8 17 49.5 31.5 74.5 36.4 4.4.9 9.4 1.8 11 2.2 1.7.3 11.1.7 21 1 16.5.3 24.2-.3 38.5-2.9 19.8-3.7 46.5-15.3 64.2-28 34.8-25 57.8-59.4 68.1-101.7 5.4-22 5.9-26.1 6.2-44.5.2-9.9.3-18.3.4-18.8.1-.4 1.7-.7 3.6-.7 2.1 0 3.5-.5 3.6-1.3 0-.6.1-4.8.2-9.2l.1-8-4-.5-3.9-.5v-21.2c0-11.6.4-21.5.8-21.9.4-.5 2.7-.9 5-.9l4.2-.1V175l-3-.1c-1.6-.1-3.8-.1-4.7 0-2.2.3-2 2.5-2.2-27.1l-.1-24.8 2.5-.1c1.4 0 4.1-.1 6-.2l3.5-.2.2-7.8.2-7.7-4.2-.1c-9-.2-8.2 1.3-8.2-14.4v-14l9-.5 9-.5v-37l-19.2-.3c-15.1-.2-19.3 0-19.4 1zm34.2 4.5c.1 2.4.1 18.7 0 24.1l-.1 4.4-3.7-.2c-2.1-.1-6.2-.2-9.1-.1l-5.3.1.3 17.6c.1 9.6.6 18 .9 18.6.4.6 3.1 1.1 6 1.2 5.3.1 5.4.2 5.4 3.1 0 2.6-.4 3-3 3.3-1.6.1-4.4.5-6.2.7l-3.1.6v14.7c0 8.1 0 20.6-.1 27.9l-.1 13.1-10.7-.1-10.8-.2-.1-6.5c-.1-3.6-.2-7.1-.3-7.7-.1-.9-2.8-1.2-9.8-1.2-5.4.1-11.2 0-12.8 0l-3-.1v-17.8c0-16.7.1-17.7 2-18.2 1.6-.5 1.9-1.5 2-6.5v-6l16.8-.3c12.3-.2 16.7-.6 16.8-1.5 0-.6.1-10.4.1-21.7l.1-20.5h-45.8l-.2 14.5c-.1 8-.2 15-.2 15.6-.1.6-2.3 1-5.3.9-6.9-.2-7.8.2-7.8 3.6 0 2.7-.3 2.9-3.7 3-2.1 0-52.3.1-111.6.1-79.6 0-108 .3-108.3 1.2-.2.6-.3 20.7-.2 44.6l.3 43.5 7.8-7.2c29.1-27 64.8-39 103.9-34.9 3.2.4 6.3.8 7 1.1.7.2 2.9.6 4.9.9 5.6.8 23.9 7.1 30.6 10.4 8.8 4.5 22.9 14.2 30.3 21l6.4 5.9-4.4 2.8c-11.8 7.6-20 16.9-17.2 19.7.6.6 1.4-.2 2.1-2.4 1.2-3.6 4.7-6.7 12.6-11.3 2.8-1.6 7.1-4.4 9.6-6.2 3.9-2.8 10.7-6.3 12.3-6.3.5 0 1.4 5.1 2.2 13 .3 3.6 1.3 8.1 2.1 10 1.9 4.8 6.2 9 9 9 2.2 0 2.3.3 2.3 8 0 9.9 1.3 11 10.5 9 8.2-1.8 15.5 8.3 15.5 21.3 0 4.1.3 4.8 1.2 3.9 2.9-2.9.9-16.9-3-21.5-.9-1-1.7-3.5-1.9-5.7-.4-4.2.1-4.5 5-4.1 1.6.2 2.2-1 1.7-3.4-.5-2.5-.1-17.5.5-18.5.7-1.1-3.4-3-5.2-2.3-.8.3-1.1-2.1-1.1-8.6V188H389.9l.3 11.7.3 11.8 12 .1c6.6.1 12.2.2 12.5.3.3 0 .5 9.9.5 21.9l.1 21.7-4.1.5-4 .5-.1 4.8c-.1 2.6-.4 5-.7 5.3-.3.3-4.8.5-10.1.6h-9.5l.2 11.6.2 11.7 11.8.1 11.7.1v-7.9c0-7.1.2-7.8 2-7.8 1.1 0 2 .6 2.1 1.2.3 3.8-.2 34.8-.6 36.9-.3 1.3-.8 4-1.1 5.9-1.2 8.3-5.7 27.6-8 34.3-11.3 33.8-34.5 64.5-64.3 85.2-19.3 13.4-47.7 24.2-70.7 27-3.3.4-6.8.9-7.9 1.1-3.3.6-30.4.6-31.4 0-.5-.3-3.1-.8-5.7-1-6.2-.7-9.1-1.2-18.9-3.7-30.8-7.8-55-21.9-78-45.2-13.3-13.6-22.4-26.1-30.5-42.5-8.1-16.4-12.5-30.9-16.6-55.7-1.1-6.8-1.3-255.5-.2-256.2 1.3-.7 245.3-.7 246.5 0 .6.4.9 3.5.8 7.1-.1 4 .2 6.6.9 6.9.6.2 4.9.3 9.6.3l8.5-.1V61.7l28.3.1c25.6 0 28.2-.1 28.3-1.6.1-1 .1-5 .1-9l.1-7.2h14.8c13.5 0 14.9.2 15 1.7zm-32.4 43c.1 17.1.1 17.3-2 17.4-2.7.1-20 .1-24.5 0-2.5-.1-3.3-.5-3.1-1.9.5-5.3 0-6.2-3.5-6.2h-3.5l-.3-5.3c-.2-2.8-.2-8.9 0-13.4l.3-8.2 18.2.2 18.2.2.2 17.2zm-42.2 14.5c.4.3.7 2.1.8 4 .2 2.8.6 3.3 2.7 3.4 1.4.1 3.1.2 3.8.3.8.1 1.1 1.4.9 3.8-.2 3.8-.3 3.8-4.7 3.8h-4.5v-4c0-3.8-.1-3.9-3.5-4-3.2-.1-3.5-.3-3.7-3.5-.2-1.8.1-3.6.7-4 1.2-.8 6.7-.6 7.5.2zm8.5.8c0 1.1-.7 2-1.5 2-2.7 0-1.8-3 1.3-3.9.1-.1.2.8.2 1.9zm-20.8 15.2c.3 4.2.4 4.3 3.4 4 2.9-.3 3.2-.1 3.5 3 .2 1.8.3 4.5.1 6l-.3 2.8-10.2-.3-10.2-.2-.3-9.8-.3-9.7h14l.3 4.2zm6.8-2.2c0 1.9-1.1 2.6-2.3 1.4-.8-.8.3-3.4 1.4-3.4.5 0 .9.9.9 2zm-5 43.3c0 3.2-.2 3.4-3.5 3.5-3.4.1-3.5 0-3.5-3.3s.2-3.5 3.5-3.5 3.5.2 3.5 3.3zm40.6 13.9l.2 9.8-5.2.1c-8.3.1-16.8 0-17.1-.3-.5-.5-.7-5.9-.6-12.9l.1-6.6 11.3.1 11.2.1.1 9.7zm34.2 5.7c2.2.1 2.2.3 2.2 13.9v13.8l-15.4.1c-13.3 0-15.5-.2-15.8-1.6-.2-.9-.3-7-.3-13.6 0-11.6.1-11.9 2.3-12.5 1.9-.4 17-.5 27-.1zm-53.1 38.3l-.2 7.3h-13l-.2-7.3-.1-7.2H371l-.3 7.2zM352 225c0 4.5 1.9 5.9 7.2 5.5 1.6-.1 2.8.1 2.8.6s-2.7.8-6 .7l-6-.2v-5.3c0-2.9.5-5.3 1-5.3.6 0 1 1.8 1 4zm71.6 40.7l-.1 4.8-5.6.3c-5.5.3-5.7.3-6-2.5-.9-6.6-.3-7.3 6.1-7.3h5.8l-.2 4.7zm-17.8 6.6c1.3.9 1.8 13.6.5 13.8-2.8.3-13 .5-13.9.2-1.3-.5-1-13.3.4-14.2 1.4-.9 11.4-.7 13 .2z"/><path d="M379.8 120.8l-2.8.3V148.8l14 .1c7.8 0 14.2-.4 14.5-.9.7-1.1 1-25.8.3-26.5-.5-.6-22.3-1.1-26-.7zm21.9 13.9c.1 7.5-.1 9.3-1.3 9.4-.8 0-4.8.1-8.9.1-4.1 0-8.1-.1-8.8-.1-.9-.1-1.2-2.4-1.1-8.4.1-4.5.2-8.7.3-9.4.1-.9 2.9-1.1 9.9-1l9.7.2.2 9.2zM205.5 201.7c-22 4.5-35.7 11.5-50.2 25.7-12.6 12.5-23 31.4-28.3 51.5-4.1 15.5-.7 46.4 7 63.6 6.1 13.8 8.8 18.5 15.6 27.5 7.7 10.3 25.4 29 27.4 29 .5 0 3.5 1.6 6.6 3.6 3.1 2 8 4.6 10.8 5.9 9.5 4.2 27.5 9.7 33.3 10.1 10.5.8 33 .5 37.4-.5 2.4-.6 5.9-1.3 7.7-1.6 7.1-1.2 25.1-7.9 32.5-12 17.9-10.1 35.4-28 45.7-46.8 3.9-7.1 6.3-9.8 7.6-8.5.2.3.5 3.5.7 7.1l.2 6.7H375.8l-.1-8v-8l-5.3-.1c-3-.1-6-.2-6.6-.3-1.6-.1-1.5-16 .1-20.9 1.2-3.8 2-7.7 2.7-13.2.2-2.2.7-4.7 1-5.5 1.1-2.9 1.5-34.8.4-35.5-.6-.3-1.3.2-1.6 1.2-.4 1-4.1 9-8.4 17.8-4.2 8.8-8.2 18.3-8.9 21-.6 2.8-1.6 5.6-2 6.4-.8 1.2-10.5 2.3-12.3 1.4-.3-.2.9-2.6 2.7-5.3 2.4-3.5 4-7.8 5.5-14.7 2.8-12.2 6.5-20 13.3-28 6.7-7.8 9.1-14.5 7.1-19.3-1.4-3.3-2.6-3.4-3-.2-.6 6-2.1 9.3-7.3 16.1-7.1 9.2-10.3 16.3-13.6 30-3.1 12.6-4.1 14.6-9.8 19.8-7.4 6.8-9.9 7.2-40.4 5.9-18.9-.8-16.5 2.6 2.7 3.9 25.7 1.6 30.9 1.2 37.1-3.4l3-2.3-.4 6.8c-.3 4.4-.9 7-1.9 7.5-4.9 2.8-30.7 4.2-46.8 2.6-6.8-.6-16.7-1.4-28.5-2.2-3.8-.2-7.9-.6-9-.9-1.1-.2-2.8-.5-3.8-.5-2.1-.1-5-3.3-5.8-6.4-1.7-6.7 7.1-16.7 14.8-16.7 4.3 0 9.7 1.8 13.7 4.5 4.2 2.9 5.3 2 2.3-1.9-1.3-1.6-4.4-3.4-7.6-4.5l-5.4-1.7 8.1-2.7c4.5-1.5 9.1-2.7 10.3-2.7 1.2 0 3.2-1.2 4.6-2.6 2.1-2.3 2.8-2.5 6.6-1.8 4.8.8 10.3.7 11.7-.1 3.3-2-1.4-7-8.4-9-7-2.1-8.5-5.3-2.1-4.6 2.9.3 15.9-2.9 17.3-4.2 1.8-1.9.9-4.7-1.5-4.8-2.9-.1-8.7-.6-9.5-.8-.5 0-.8-.8-.8-1.6 0-.9 1.4-1.6 3.8-2 5.7-1 8.2-2.3 8.2-4.4 0-2.7-1.8-3.8-7.5-4.6-2.7-.4-5.8-.9-6.7-1.2-2-.5-2.5-4.3-.5-4.4 11.2-.5 15.3-1.4 16.1-3.6 1-2.4-.1-3-9.1-5.6-7.6-2.3-13.4-5.3-15.9-8.4-1.4-1.6-5.2-1.8-14.6-.8-6.7.8-6.7.8-7.4-1.9-.9-3.6 1.2-8 5.3-11.3 4.8-3.9 8.7-5.1 16.6-5.2 3.7-.1 6.7-.5 6.7-1.1 0-1.2-6.5-3-11-3-2.1 0-7.1-1.7-12.5-4.4-16.3-8-26.7-10.5-43-10.4-6 .1-11.9.3-13 .5zm152 122.7c.6.2 1 4.3.9 10.2l-.2 9.9-6.5.3c-5.6.2-6.6 0-6.9-1.5-.2-1.1-1.3-1.8-2.8-1.9-5.9-.2-5.6.2-5.8-8.8l-.1-8.5 5.2-.3c5.8-.3 14.7 0 16.2.6zm-16 25.6c.2 7.1.3 7-10 6.1-.9-.1-1.2-6.3-.6-10.4 0-.4 2.4-.7 5.3-.5l5.1.3.2 4.5zm29.5 5.1c0 3.8-.1 3.8-3.5 3.7-3.4-.1-3.5-.3-3.5-3.9s.1-3.7 3.5-3.7 3.5.1 3.5 3.9z"/><path d="M330.9 235.8c-5.9.7-9.9 8.9-7.7 15.4 2 5.6 9.6 8.6 14.7 5.8 3-1.6 5.5-6.3 5.7-10.8.4-7.2-4.9-11.5-12.7-10.4zm6.4 4.6c3.1 2.4 3.8 7 1.6 10.5-3.3 5.4-8.6 6-11.7 1.3-2.1-3.2-2.3-4.7-1.1-8.1 1.6-4.5 7.5-6.5 11.2-3.7zM377.7 304.5c-.2.5-.3 5-.3 10l.1 9 6.8.3 6.7.3V335l7.8-.2c12-.2 10.8 1.8 10.3-17.5-.1-1.9-.6-2.2-3.8-1.8-5.5.5-6.2-.1-6.1-5.3 0-2.6-.1-5.2-.1-5.7-.1-.6-4.3-1-10.6-1-6.1 0-10.6.4-10.8 1zm16.8 8.8c.1 2.6-.1 5.1-.4 5.5-.4.4-3.2.7-6.3.7-6.2 0-6 .3-6-6.5 0-1.7.1-3.5.1-4 .1-.7 2.5-1 6.3-.8l6.3.3v4.8zm10 11.7v4.5l-4.8.3c-4.6.3-4.8.2-4.5-2 .2-1.5 1.1-2.4 2.6-2.6 1.6-.3 2.2-1 2.2-2.8 0-2.1.4-2.5 2.3-2.2 1.9.3 2.2.9 2.2 4.8zM350.8 368.8l-5.8.3v20.8h10l9.9-.1-.2-9.9c-.2-5.4-.6-10.2-1-10.5-.8-.8-5.1-1-12.9-.6zm8.8 3.2c1.1 0 1.4 1.6 1.4 7v6.9l-5.7-.3c-3.2-.2-6.1-.4-6.4-.5-.3 0-.5-2.9-.4-6.4l.1-6.2 3.5-.6c1.9-.4 4-.5 4.7-.3.8.2 2 .4 2.8.4z"/></svg>