<?xml version="1.0" standalone="no"?>
<!DOCTYPE svg PUBLIC "-//W3C//DTD SVG 20010904//EN"
 "http://www.w3.org/TR/2001/REC-SVG-20010904/DTD/svg10.dtd">
<svg version="1.0" xmlns="http://www.w3.org/2000/svg"
 width="512.000000pt" height="512.000000pt" viewBox="0 0 512.000000 512.000000"
 preserveAspectRatio="xMidYMid meet">
<metadata>
Created by potrace 1.11, written by Peter Selinger 2001-2013
</metadata>
<g transform="translate(0.000000,512.000000) scale(0.100000,-0.100000)"
fill="#000000" stroke="none">
<path d="M3999 4708 c-1 -7 -1 -45 -1 -85 0 -58 -3 -72 -16 -75 -10 -2 -137
-4 -284 -3 l-268 1 -1 -36 c0 -19 -1 -53 -2 -75 l-2 -39 -47 -1 -48 -1 0 73
c0 40 -3 74 -7 74 -5 1 -583 2 -1285 3 -1136 1 -1278 0 -1279 -14 0 -8 -1
-577 -2 -1265 -2 -1135 0 -1261 15 -1367 67 -452 259 -806 598 -1098 198 -170
495 -315 745 -364 44 -9 94 -18 110 -22 17 -3 111 -7 210 -10 165 -3 242 3
385 29 198 37 465 153 642 280 348 250 578 594 681 1017 54 220 59 261 62 445
2 99 3 183 4 188 1 4 17 7 36 7 21 0 35 5 36 13 0 6 1 48 2 92 l1 80 -40 5
-39 5 0 212 c0 116 4 215 8 219 4 5 27 9 50 9 l42 1 0 182 0 182 -30 1 c-16 1
-38 1 -47 0 -22 -3 -20 -25 -22 271 l-1 248 25 1 c14 0 41 1 60 2 l35 2 2 78
2 77 -42 1 c-90 2 -82 -13 -82 144 l0 140 90 5 90 5 0 185 0 185 -192 3 c-151
2 -193 0 -194 -10z m342 -45 c1 -24 1 -187 0 -241 l-1 -44 -37 2 c-21 1 -62 2
-91 1 l-53 -1 3 -176 c1 -96 6 -180 9 -186 4 -6 31 -11 60 -12 53 -1 54 -2 54
-31 0 -26 -4 -30 -30 -33 -16 -1 -44 -5 -62 -7 l-31 -6 0 -147 c0 -81 0 -206
-1 -279 l-1 -131 -107 1 -108 2 -1 65 c-1 36 -2 71 -3 77 -1 9 -28 12 -98 12
-54 -1 -112 0 -128 0 l-30 1 0 178 c0 167 1 177 20 182 16 5 19 15 20 65 l0
60 168 3 c123 2 167 6 168 15 0 6 1 104 1 217 l1 205 -229 0 -229 0 -2 -145
c-1 -80 -2 -150 -2 -156 -1 -6 -23 -10 -53 -9 -69 2 -78 -2 -78 -36 0 -27 -3
-29 -37 -30 -21 0 -523 -1 -1116 -1 -796 0 -1080 -3 -1083 -12 -2 -6 -3 -207
-2 -446 l3 -435 78 72 c291 270 648 390 1039 349 32 -4 63 -8 70 -11 7 -2 29
-6 49 -9 56 -8 239 -71 306 -104 88 -45 229 -142 303 -210 l64 -59 -44 -28
c-118 -76 -200 -169 -172 -197 6 -6 14 2 21 24 12 36 47 67 126 113 28 16 71
44 96 62 39 28 107 63 123 63 5 0 14 -51 22 -130 3 -36 13 -81 21 -100 19 -48
62 -90 90 -90 22 0 23 -3 23 -80 0 -99 13 -110 105 -90 82 18 155 -83 155
-213 0 -41 3 -48 12 -39 29 29 9 169 -30 215 -9 10 -17 35 -19 57 -4 42 1 45
50 41 16 -2 22 10 17 34 -5 25 -1 175 5 185 7 11 -34 30 -52 23 -8 -3 -11 21
-11 86 l0 91 109 0 108 0 3 -117 3 -118 120 -1 c66 -1 122 -2 125 -3 3 0 5
-99 5 -219 l1 -217 -41 -5 -40 -5 -1 -48 c-1 -26 -4 -50 -7 -53 -3 -3 -48 -5
-101 -6 l-95 0 2 -116 2 -117 118 -1 117 -1 0 79 c0 71 2 78 20 78 11 0 20 -6
21 -12 3 -38 -2 -348 -6 -369 -3 -13 -8 -40 -11 -59 -12 -83 -57 -276 -80
-343 -113 -338 -345 -645 -643 -852 -193 -134 -477 -242 -707 -270 -33 -4 -68
-9 -79 -11 -33 -6 -304 -6 -314 0 -5 3 -31 8 -57 10 -62 7 -91 12 -189 37
-308 78 -550 219 -780 452 -133 136 -224 261 -305 425 -81 164 -125 309 -166
557 -11 68 -13 2555 -2 2562 13 7 2453 7 2465 0 6 -4 9 -35 8 -71 -1 -40 2
-66 9 -69 6 -2 49 -3 96 -3 l85 1 0 74 0 74 283 -1 c256 0 282 1 283 16 1 10
1 50 1 90 l1 72 148 0 c135 0 149 -2 150 -17z m-324 -430 c1 -171 1 -173 -20
-174 -27 -1 -200 -1 -245 0 -25 1 -33 5 -31 19 5 53 0 62 -35 62 l-35 0 -3 53
c-2 28 -2 89 0 134 l3 82 182 -2 182 -2 2 -172z m-422 -145 c4 -3 7 -21 8 -40
2 -28 6 -33 27 -34 14 -1 31 -2 38 -3 8 -1 11 -14 9 -38 -2 -38 -3 -38 -47
-38 l-45 0 0 40 c0 38 -1 39 -35 40 -32 1 -35 3 -37 35 -2 18 1 36 7 40 12 8
67 6 75 -2z m85 -8 c0 -11 -7 -20 -15 -20 -27 0 -18 30 13 39 1 1 2 -8 2 -19z
m-208 -152 c3 -42 4 -43 34 -40 29 3 32 1 35 -30 2 -18 3 -45 1 -60 l-3 -28
-102 3 -102 2 -3 98 -3 97 70 0 70 0 3 -42z m68 22 c0 -19 -11 -26 -23 -14 -8
8 3 34 14 34 5 0 9 -9 9 -20z m-50 -433 c0 -32 -2 -34 -35 -35 -34 -1 -35 0
-35 33 0 33 2 35 35 35 33 0 35 -2 35 -33z m406 -139 l2 -98 -52 -1 c-83 -1
-168 0 -171 3 -5 5 -7 59 -6 129 l1 66 113 -1 112 -1 1 -97z m342 -57 c22 -1
22 -3 22 -139 l0 -138 -154 -1 c-133 0 -155 2 -158 16 -2 9 -3 70 -3 136 0
116 1 119 23 125 19 4 170 5 270 1z m-531 -383 l-2 -73 -65 0 -65 0 -2 73 -1
72 69 0 69 0 -3 -72z m-187 -68 c0 -45 19 -59 72 -55 16 1 28 -1 28 -6 0 -5
-27 -8 -60 -7 l-60 2 0 53 c0 29 5 53 10 53 6 0 10 -18 10 -40z m716 -407 l-1
-48 -56 -3 c-55 -3 -57 -3 -60 25 -9 66 -3 73 61 73 l58 0 -2 -47z m-178 -66
c13 -9 18 -136 5 -138 -28 -3 -130 -5 -139 -2 -13 5 -10 133 4 142 14 9 114 7
130 -2z"/>
<path d="M3798 3912 l-28 -3 0 -139 0 -138 140 -1 c78 0 142 4 145 9 7 11 10
258 3 265 -5 6 -223 11 -260 7z m219 -139 c1 -75 -1 -93 -13 -94 -8 0 -48 -1
-89 -1 -41 0 -81 1 -88 1 -9 1 -12 24 -11 84 1 45 2 87 3 94 1 9 29 11 99 10
l97 -2 2 -92z"/>
<path d="M2055 3103 c-220 -45 -357 -115 -502 -257 -126 -125 -230 -314 -283
-515 -41 -155 -7 -464 70 -636 61 -138 88 -185 156 -275 77 -103 254 -290 274
-290 5 0 35 -16 66 -36 31 -20 80 -46 108 -59 95 -42 275 -97 333 -101 105 -8
330 -5 374 5 24 6 59 13 77 16 71 12 251 79 325 120 179 101 354 280 457 468
39 71 63 98 76 85 2 -3 5 -35 7 -71 l2 -67 81 0 82 0 -1 80 0 80 -53 1 c-30 1
-60 2 -66 3 -16 1 -15 160 1 209 12 38 20 77 27 132 2 22 7 47 10 55 11 29 15
348 4 355 -6 3 -13 -2 -16 -12 -4 -10 -41 -90 -84 -178 -42 -88 -82 -183 -89
-210 -6 -28 -16 -56 -20 -64 -8 -12 -105 -23 -123 -14 -3 2 9 26 27 53 24 35
40 78 55 147 28 122 65 200 133 280 67 78 91 145 71 193 -14 33 -26 34 -30 2
-6 -60 -21 -93 -73 -161 -71 -92 -103 -163 -136 -300 -31 -126 -41 -146 -98
-198 -74 -68 -99 -72 -404 -59 -189 8 -165 -26 27 -39 257 -16 309 -12 371 34
l30 23 -4 -68 c-3 -44 -9 -70 -19 -75 -49 -28 -307 -42 -468 -26 -68 6 -167
14 -285 22 -38 2 -79 6 -90 9 -11 2 -28 5 -38 5 -21 1 -50 33 -58 64 -17 67
71 167 148 167 43 0 97 -18 137 -45 42 -29 53 -20 23 19 -13 16 -44 34 -76 45
l-54 17 81 27 c45 15 91 27 103 27 12 0 32 12 46 26 21 23 28 25 66 18 48 -8
103 -7 117 1 33 20 -14 70 -84 90 -70 21 -85 53 -21 46 29 -3 159 29 173 42
18 19 9 47 -15 48 -29 1 -87 6 -95 8 -5 0 -8 8 -8 16 0 9 14 16 38 20 57 10
82 23 82 44 0 27 -18 38 -75 46 -27 4 -58 9 -67 12 -20 5 -25 43 -5 44 112 5
153 14 161 36 10 24 -1 30 -91 56 -76 23 -134 53 -159 84 -14 16 -52 18 -146
8 -67 -8 -67 -8 -74 19 -9 36 12 80 53 113 48 39 87 51 166 52 37 1 67 5 67
11 0 12 -65 30 -110 30 -21 0 -71 17 -125 44 -163 80 -267 105 -430 104 -60
-1 -119 -3 -130 -5z m1520 -1227 c6 -2 10 -43 9 -102 l-2 -99 -65 -3 c-56 -2
-66 0 -69 15 -2 11 -13 18 -28 19 -59 2 -56 -2 -58 88 l-1 85 52 3 c58 3 147
0 162 -6z m-160 -256 c2 -71 3 -70 -100 -61 -9 1 -12 63 -6 104 0 4 24 7 53 5
l51 -3 2 -45z m295 -51 c0 -38 -1 -38 -35 -37 -34 1 -35 3 -35 39 0 36 1 37
35 37 34 0 35 -1 35 -39z"/>
<path d="M3309 2762 c-59 -7 -99 -89 -77 -154 20 -56 96 -86 147 -58 30 16 55
63 57 108 4 72 -49 115 -127 104z m64 -46 c31 -24 38 -70 16 -105 -33 -54 -86
-60 -117 -13 -21 32 -23 47 -11 81 16 45 75 65 112 37z"/>
<path d="M3777 2075 c-2 -5 -3 -50 -3 -100 l1 -90 68 -3 67 -3 0 -54 0 -55 78
2 c120 2 108 -18 103 175 -1 19 -6 22 -38 18 -55 -5 -62 1 -61 53 0 26 -1 52
-1 57 -1 6 -43 10 -106 10 -61 0 -106 -4 -108 -10z m168 -88 c1 -26 -1 -51 -4
-55 -4 -4 -32 -7 -63 -7 -62 0 -60 -3 -60 65 0 17 1 35 1 40 1 7 25 10 63 8
l63 -3 0 -48z m100 -117 l0 -45 -48 -3 c-46 -3 -48 -2 -45 20 2 15 11 24 26
26 16 3 22 10 22 28 0 21 4 25 23 22 19 -3 22 -9 22 -48z"/>
<path d="M3508 1432 l-58 -3 0 -104 0 -104 100 0 99 1 -2 99 c-2 54 -6 102
-10 105 -8 8 -51 10 -129 6z m88 -32 c11 0 14 -16 14 -70 l0 -69 -57 3 c-32 2
-61 4 -64 5 -3 0 -5 29 -4 64 l1 62 35 6 c19 4 40 5 47 3 8 -2 20 -4 28 -4z"/>
</g>
</svg>
