<?xml version="1.0" encoding="utf-8"?>
<!-- Generator: Adobe Illustrator 21.1.0, SVG Export Plug-In . SVG Version: 6.00 Build 0)  -->
<svg version="1.1" id="Layer_1" xmlns="http://www.w3.org/2000/svg" xmlns:xlink="http://www.w3.org/1999/xlink" x="0px" y="0px"
	 viewBox="0 0 512 512" style="enable-background:new 0 0 512 512;" xml:space="preserve">
<style type="text/css">
	.st0{fill:#FFFFFF;}
	.st1{fill:#0292CE;}
	.st2{fill:#3D8517;}
</style>
<g>
	<path class="st0" d="M419.5,211.6c0,0.1,0,0.3-0.1,0.4c0,0-0.1,0.1-0.1,0.1c0,0.1,0.1,0.1,0.1,0.2c0,0.4,0.1,0.8,0.1,1.2
		c0,13.4,0,26.9,0,40.3c0,0,0,0,0,0c-0.3,0.9-0.7,1.7,0.2,2.5c2.5,0,5.1,0.1,7.6,0c0,0,0,0,0,0c0,5.9,0,11.7,0,17.6
		c0,0.8-0.3,1-1,0.9c-1.9,0-3.9,0-5.8,0c-0.7,0-1,0.1-1,0.9c0,10.3,0.1,20.7,0,31c0,4.9-1.1,9.6-2.1,14.3c-1,4.8-2.2,9.5-3.2,14.2
		c-1.8,8.6-4.3,17-7.3,25.3c-2.6,6.9-5.6,13.7-9.1,20.2c-4.5,8.5-9.7,16.6-15.5,24.2c-8.1,10.6-17.4,20.2-27.8,28.6
		c-8.2,6.7-16.9,12.6-26.2,17.7c-11.8,6.5-24.2,11.4-37.2,15c-10.5,2.8-21.2,4.7-32,5.4c-12.7,0.9-25.3,0.5-37.9-1.4
		c-11.5-1.7-22.7-4.5-33.6-8.5c-9.7-3.5-18.9-7.9-27.8-13.2c-11.9-7-22.8-15.3-32.7-25c-9.2-9-17.3-18.9-24.3-29.6
		c-3.3-5.1-6.5-10.4-9.2-15.9c-3.9-7.9-7.2-16-9.9-24.3c-2.1-6.7-3.9-13.5-5.2-20.4c-0.8-4.4-1.4-8.8-2.1-13.2
		c-0.3-1.9-0.6-3.8-0.9-5.7c-0.8-4.4-0.7-8.9-0.6-13.4c0.8-0.4,0.4-1.1,0.4-1.6c0-80.5,0-161.1,0-241.6c0,0,0-0.1,0.1-0.1
		c84.7,0,169.5,0,254.2,0c0.5-0.2,1.1,0.2,1.7,0.1c0.9,0.2,0.7,0.6,0.7,1.2c0.1,4.6,0.2,9.1,0.1,13.7c0,0,0,0.1,0.1,0
		c3.1-0.2,6.2-0.1,9.2-0.1c0.7,0,0.9-0.2,0.9-0.9c0-4.4,0.1-8.9,0.2-13.3c0-0.4-0.1-0.6,0-0.9c0.2-0.2,1.1,0.1,1.5,0.1
		c18,0,36,0,54,0c0.4,0,0.9,0.2,1.2-0.3c0.3-0.4,0.2-0.9,0.2-1.4c0-5.3,0-10.6,0-15.9c12.4,0,24.8,0,37.2,0c1,0,1.4,0.2,1.3,1.3
		c0,11.7,0,23.4,0,35.1c0,1.1-0.3,1.4-1.4,1.4c-5.1-0.1-10.3,0-15.4,0c-0.4,0-1.1-0.3-1.2,0.5c0,9.1,0.1,18.1,0,27.2
		c0,1.2,0.3,1.6,1.5,1.5c3.2-0.1,6.3,0,9.5-0.1c0.8,0,1.2,0.1,1.1,1.1c-0.1,4.5,0,9.1,0,13.6c0,0.8-0.2,1.1-1,1.1
		c-3.3-0.1-6.6,0-10,0c-1,0-1.2,0.3-1.2,1.2c0,16.2,0,32.4,0,48.7c0,0.5,0,0.9,0,1.4c0,0.7,0.1,0.6,0.1,1"/>
</g>
<g>
	<path class="st1" d="M122.1,187.5c0-1.3,0-2.6,0-3.9c0-25.9,0-51.9,0-77.8c0-0.9,0.7-1.6,1.6-1.6c73.6,0,147.3,0,220.9,0
		c0.2,0,0.3,0,0.5,0c0.7,0.1,1.1-0.1,1-1c-0.1-1.5,0.1-3,0-4.5c-0.1-1.1,0.3-1.3,1.3-1.3c3.6,0.1,7.3,0,10.9,0c1,0,1.2-0.3,1.2-1.2
		c0-9.7,0-19.3,0-29c0-0.7,0.5-1.2,1.2-1.2c14.4,0,28.8,0,43.2,0c1,0,1.2,0.2,1.2,1.2c0,13.8,0,27.6,0,41.3c0,1-0.3,1.2-1.3,1.2
		c-10.5,0-21.1,0-31.6,0c-0.6,0-1.1,0.5-1.1,1.1c0.1,2.9,0,5.8,0,8.8c0,0.9,0.3,1.9-0.2,2.5c-0.4,0.6-1.5,0.2-2.4,0.2
		c-1,0-1.3,0.3-1.3,1.4c0,11,0,22.1,0,33.1c0,2.3,0,2.4,2.4,2.4c7.4,0,14.8,0,22.2,0c0.9,0,1.2,0.3,1.2,1.2c0,4.4,0,8.9,0,13.3
		c0,0.7,0,1.1,0.9,1.1c7.1,0,14.2,0,21.3,0c1.3,0,2.6,0,3.9,0.1c0.1,0,0.2,0,0.3,0c3,0,5.9,0,8.9,0c0.7,0,1,0.1,1,0.9
		c0,11.5,0,23.1,0,34.6c0,0.8-0.2,0.9-0.9,0.9c-3,0-6,0-9,0c-1.6,0-3.2-0.2-4.8,0.1c-1,0-2.1-0.1-3.1-0.1c-7,0-14.1,0-21.1,0
		c-0.9,0-1.2-0.2-1.2-1.2c0-7.1,0-14.2,0-21.3c0-0.8-0.2-1.1-1-1.1c-6.7,0-13.4,0-20.1,0c-1,0-1.3,0.3-1.2,1.6
		c0.4,5.1,0.2,10.3,0,15.5c0,0.8,0.3,1,1.1,1c1.5,0,2.9,0,4.4,0c1.1,0,1.3,0.4,0.9,2.7c-1.1,6.2-1,12.6,0.1,18.8
		c0.3,1.9,0,2.1-0.9,2.1c-1.7,0-3.4,0-5.1,0c-0.5,0-1,0-1.2,0.7c-0.3,1.3-0.6,2.6-0.2,4c0.2,0.6,0.2,1.3-0.1,2
		c-0.4-0.3-0.3-0.6-0.3-0.9c0-0.4,0.1-0.8,0.5-0.8c0.4,0,0.5,0.3,0.5,0.6c0,0.6,0.8,1.2-0.3,1.7c-0.3,0.1-0.2,0.6,0,0.9
		c0.3,0.8,0.8,1.5,1.6,1.8c0.7,0.3,1.1,0.8,1.4,1.4c2.5,4.3,3.1,9.1,3.4,14c0.1,0.9-0.4,1.7-0.4,2.6c0,1.3-0.6,2.5-1,3.7
		c-0.1,0.3-0.3,0.6-0.7,0.6c-0.4,0-0.4-0.4-0.4-0.7c0-0.2,0-0.5,0-0.7c0.2-3.7-0.1-7.3-0.9-10.9c-0.9-3.9-2.1-7.5-5-10.4
		c-3.5-3.7-7.7-4.1-14.5-1.7c-1.4,0.5-2.7-0.4-3.7-1.5c-0.2-0.3-1.1,0.3-1.2-0.4c-0.2-1.1-0.7-2.1-0.7-3.2c0.1-3.6,0.6-7.3,0.3-10.9
		c-0.1-1.1-0.8-2.4-1.5-2.2c-1.9,0.6-3.3-0.4-4.5-1.4c-3.6-2.8-5.9-6.6-6.7-11.1c-0.8-4.2-0.9-8.5-1.4-12.8
		c-0.2-1.8-0.5-3.6-0.8-5.4c-0.1-0.5-0.1-1.3-0.9-1.1c-1.1,0.2-2.2,0.5-3.3,0.9c-4.1,1.3-7.2,4.2-10.7,6.3c-2.3,1.4-4.4,3.1-6.7,4.4
		c-2.5,1.4-5.2,2.4-7.5,4.3c-1.9,1.5-4,2.8-5.4,4.9c-1,1.6-1,3.5-1.8,5.1c-0.2,0.3-0.1,0.9-0.6,0.8c-0.5-0.1-0.5-0.5-0.6-0.9
		c-0.1-1.1-0.2-2.3,0.2-3.4c1.4-3.4,3.9-6.1,6.7-8.5c1-0.9,2.5-1.3,3.3-2.4c0.8-1.1,1.8-2.1,3-2.6c2.9-1.2,5.2-3,7.6-4.7
		c0.6-0.4,0.7-0.7,0.1-1.3c-3.2-3.3-6.6-6.4-10.1-9.4c-19.4-16.2-41.6-25.9-66.7-29.3c-8.8-1.2-17.7-1.3-26.5-0.7
		c-9.4,0.7-18.6,2.4-27.7,5.2c-8,2.4-15.7,5.6-23.1,9.5c-11.3,6-21.4,13.5-30.5,22.4c-1.3,1.3-2.6,2.7-3.9,4
		c-0.3,0.3-0.7,0.7-1.1,0.8c-0.6,0-1.2-0.6-1.2-1 M382.4,71c-5.9,0-11.7,0-17.6,0c-0.8,0-1.2,0.1-1.2,1.1c0,8.4,0,16.7,0,25.1
		c0,0.8,0.2,1,1,1c1.8-0.1,3.6,0,5.5,0c0.8,0,1.1,0.2,1.1,1c-0.1,2,0,4,0,5.9c0,0.9,0.1,1.2,1.1,1.2c9.1,0,18.3,0,27.4,0
		c1,0,1.2-0.3,1.2-1.2c0-11,0-21.9,0-32.9c0-1.1-0.3-1.2-1.3-1.2C393.9,71.1,388.2,71,382.4,71z M409.3,179.7c-4.9,0-9.9,0-14.8,0
		c-0.9,0-1.1,0.3-1.1,1.1c0,8.6,0,17.2,0,25.9c0,0.9,0.2,1.1,1.1,1.1c9.8,0,19.7,0,29.5,0c0.9,0,1.1-0.3,1.1-1.1
		c0-8.6,0-17.2,0-25.9c0-1-0.4-1.1-1.2-1.1C419,179.7,414.2,179.7,409.3,179.7z M377.3,164.2c-3.5,0-7,0-10.6,0
		c-0.7,0-1.1,0.1-1,0.9c0,6.1,0,12.2,0,18.3c0,0.7,0.2,0.9,0.9,0.9c7.1,0,14.2,0,21.2,0c0.8,0,1-0.3,1-1c0-6.1,0-12.1,0-18.2
		c0-0.8-0.2-1-1-1C384.4,164.2,380.8,164.2,377.3,164.2z M342.7,134.8C342.7,134.8,342.7,134.8,342.7,134.8c3.3,0,6.6,0,9.8,0
		c0.5,0,0.9-0.4,0.9-0.9c0-3.3,0-6.6,0-9.8c0-0.8-0.3-0.9-1-0.9c-1.7,0-3.4,0-5.1,0c-0.5,0-1-0.4-0.9-0.9c0-2.1,0-4.2,0-6.4
		c0-0.6-0.4-1-1-1c-4.2,0-8.3,0-12.5,0c-0.8,0-1,0.2-1,1c0,6,0,11.9,0,17.9c0,0.8,0.2,1.1,1.1,1.1
		C336.3,134.7,339.5,134.8,342.7,134.8z M369.9,218.5c0-1.7,0-3.3,0-5c0-2.8,0-2.7-2.7-2.7c-3.4,0.1-6.7,0-10.1-0.1
		c-0.6,0-0.9,0.1-0.9,0.8c0,4.5,0,9,0,13.5c0,0.8,0.3,1,1.4,0.8c3.7-0.4,7.4-0.3,11,0c1.1,0.1,1.3-0.1,1.3-0.9
		C369.9,222.8,369.9,220.6,369.9,218.5z M362.1,118.9c1.3,0,2.6,0,3.9,0c0.7,0,1-0.2,0.9-0.9c0-2.2,0-4.4,0-6.5c0-0.7-0.2-1-0.9-0.9
		c-1.9,0.1-3.7,0-5.6,0c-0.8,0-1-0.2-1-1c0.1-2.1,0-4.1,0-6.2c0-0.7-0.1-1.1-1-1c-2.5,0.1-4.9,0-7.4,0c-0.7,0-0.9,0.2-0.9,0.9
		c0,2.2,0,4.4,0,6.5c0,0.8,0.3,0.9,1,0.9c1.7,0,3.3,0,5,0c0.9,0,1.2,0.2,1.1,1.1c-0.1,2.1,0,4.2,0,6.3c0,0.7,0.2,0.9,0.9,0.9
		C359.5,118.8,360.8,118.9,362.1,118.9z M344.5,163.9c1,0,2.1,0,3.1,0c0.6,0,0.8-0.1,0.8-0.7c0-1.9,0-3.7,0-5.6
		c0-0.5-0.1-0.8-0.7-0.8c-2.1,0-4.1,0-6.2,0c-0.6,0-0.8,0.2-0.8,0.7c0,1.9,0,3.7,0,5.6c0,0.7,0.3,0.8,0.8,0.8
		C342.6,163.9,343.6,163.9,344.5,163.9z M355,231.8c1.7,0,3.5,0,5.2,0c0.7,0,1-0.2,1-0.9c0-0.7-0.3-0.8-0.9-0.8c-2.6,0-5.1,0-7.7,0
		c-1,0-1.2-0.3-1.2-1.3c0.1-2.5,0-5,0-7.5c0-0.9-0.4-0.9-1-0.8c-0.5,0.1-1.4-0.5-1.4,0.8c0,3.2,0,6.4,0,9.6c0,0.7,0.2,0.9,0.9,0.9
		C351.5,231.8,353.2,231.8,355,231.8z M353.3,116.8c0-0.5,0-0.9,0-1.4c0-0.3-0.1-0.5-0.4-0.6c-1.7-0.5-2.4,0.1-2.4,1.8
		c0,0.6,0,1.1,0,1.7c0,0.3,0.1,0.5,0.4,0.6c1.7,0.4,2.4,0,2.4-1.8C353.3,117,353.3,116.9,353.3,116.8z M366.9,104.4
		c0-0.4,0-0.6,0-0.9c0.1-0.9-0.2-1.2-1.1-1.2c-2.1,0.1-2.1,0-2.1,2.1c0,0.4,0,0.9,0,1.3c0,0.2,0,0.5,0.4,0.5c0.9,0,1.9,0.3,2.7-0.1
		C367.2,105.9,366.8,105,366.9,104.4z"/>
	<path class="st2" d="M327.7,61.6c-0.6,0-1.4,0.1-2,0.1c-80.5,0-161,0-241.5,0c-1.1,0-2.1-0.1-3.2,0c-1.2,0.1-1.7,0.6-1.7,1.8
		c0,1.5,0,3,0,4.5c0,74.3,0,148.5,0,222.8c0,3.7,0.3,7.5,0.3,11.2c0,6.4,0.3,12.8,1.2,19.1c1.1,7.5,2.4,15,4.4,22.3
		c1.6,5.9,3.5,11.7,5.7,17.4c1.4,3.6,3,7.2,4.7,10.8c2.3,4.9,4.9,9.7,7.7,14.4c2.3,3.9,4.9,7.7,7.5,11.5c2.6,3.6,5.3,7.1,8.1,10.4
		c2.6,3,5.3,5.8,8,8.7c2.8,2.9,5.8,5.7,8.8,8.5c4.2,4,9,7.3,13.5,10.9c1.8,1.4,3.7,2.5,5.6,3.7c3,2,5.9,4.1,9.3,5.6
		c0.3,0.1,0.7,0.3,0.9,0.5c0.6,0.8,1.4,1.1,2.3,1.4c0.5,0.2,1,0.4,1.4,0.7c2,1.4,4.2,2.3,6.4,3.3c2,0.9,4.1,1.7,6,2.7
		c2.5,1.2,5.3,1.7,7.7,3.2c1.3,0.8,3.1,0.1,4.2,1.8c0,0.1,0.1,0.1,0.2,0.1c4.1,0.5,8,1.9,11.9,3.1c4.2,1.3,8.6,1.6,12.8,2.8
		c4,1.1,8.4,0.5,12.3,1.9c0.2,0.1,0.4,0.1,0.6,0.1c12,0.8,23.9,0.7,35.8-0.8c6.3-0.8,12.5-1.9,18.7-3.3c5.7-1.3,11.3-3,16.8-5
		c4.7-1.7,9.2-3.5,13.7-5.5c2.6-1.2,5.1-2.6,7.7-3.9c3.1-1.5,5.9-3.4,8.9-4.9c0.2-0.1,0.3-0.2,0.5-0.3c16.4-10,30.6-22.4,42.6-37
		c2.2-2.7,4.1-5.5,6.3-8.2c0.1-0.1,0.1-0.2,0.2-0.3c8.8-12.3,15.8-25.4,20.9-39.4c2.3-6.2,4.3-12.5,5.7-19c2.4-11,4.5-22,5.9-33.1
		c0-0.2,0-0.4,0-0.6c-0.2-9.9-0.4-9.1,0.2-26.2c-0.1-0.1-0.1-2.7,0.1-2.7c-0.1-1.3-0.2-1-0.1-1.3c0.1-0.6-0.1-0.7-0.7-0.7
		c-1.3,0.1-2.5,0-3.8,0c-0.8-0.1-0.4,0.5-0.4,0.8c0,4.5,0,9,0,13.5c0,0.4-0.2,0.8,0.4,1c-0.2,0.5-0.6,0.2-0.9,0.2
		c-7.6,0-15.1,0-22.7,0c0,0,0,0,0,0c0-7.5,0-15,0-22.5c0-0.3-0.3-0.7,0.2-0.9c0.2,0.6,0.6,0.4,1,0.4c5.9,0,11.8,0,17.7,0
		c0.4,0,0.8,0.1,1-0.4c0.2-3.2,0.1-6.3,0.1-9.5c0-1.1,0.3-1.3,1.3-1.3c1.9,0.1,3.9,0,5.8,0c0.9,0,1.3-0.3,1.3-1.3c0-14,0-28,0-42
		c0-0.4,0.2-0.8-0.2-1.1c1.6-0.3,3.2-0.1,4.8-0.1c0,0.1,0,0.3-0.1,0.4c0,0-0.1,0.1-0.1,0.1c0,0.1,0.1,0.1,0.1,0.2
		c0,0.4,0.1,0.8,0.1,1.2c0,13.4,0,26.9,0,40.3c0,0,0,0,0,0c-0.3,0.9-0.7,1.7,0.2,2.5c2.5,0,5.1,0.1,7.6,0c0,0,0,0,0,0
		c0,5.9,0,11.7,0,17.6c0,0.8-0.3,1-1,0.9c-1.9,0-3.9,0-5.8,0c-0.7,0-1,0.1-1,0.9c0,10.3,0.1,20.7,0,31c0,4.9-1.1,9.6-2.1,14.3
		c-1,4.8-2.2,9.5-3.2,14.2c-1.8,8.6-4.3,17-7.3,25.3c-2.6,6.9-5.6,13.7-9.1,20.2c-4.5,8.5-9.7,16.6-15.5,24.2
		c-8.1,10.6-17.4,20.2-27.8,28.6c-8.2,6.7-16.9,12.6-26.2,17.7c-11.8,6.5-24.2,11.4-37.2,15c-10.5,2.8-21.2,4.7-32,5.4
		c-12.7,0.9-25.3,0.5-37.9-1.4c-11.5-1.7-22.7-4.5-33.6-8.5c-9.7-3.5-18.9-7.9-27.8-13.2c-11.9-7-22.8-15.3-32.7-25
		c-9.2-9-17.3-18.9-24.3-29.6c-3.3-5.1-6.5-10.4-9.2-15.9c-3.9-7.9-7.2-16-9.9-24.3c-2.1-6.7-3.9-13.5-5.2-20.4
		c-0.8-4.4-1.4-8.8-2.1-13.2c-0.3-1.9-0.6-3.8-0.9-5.7c-0.8-4.4-0.7-8.9-0.6-13.4c0.8-0.4,0.4-1.1,0.4-1.6c0-80.5,0-161.1,0-241.6
		c0,0,0-0.1,0.1-0.1c84.7,0,169.5,0,254.2,0c0.5-0.2,1.1,0.2,1.7,0.1c0.9,0.2,0.7,0.6,0.7,1.2c0.1,4.6,0.2,9.1,0.1,13.7
		c0,0,0,0.1,0.1,0c3.1-0.2,6.2-0.1,9.2-0.1c0.7,0,0.9-0.2,0.9-0.9c0-4.4,0.1-8.9,0.2-13.3c0-0.4-0.1-0.6,0-0.9
		c0.2-0.2,1.1,0.1,1.5,0.1c18,0,36,0,54,0c0.4,0,0.9,0.2,1.2-0.3c0.3-0.4,0.2-0.9,0.2-1.4c0-5.3,0-10.6,0-15.9c12.4,0,24.8,0,37.2,0
		c1,0,1.4,0.2,1.3,1.3c0,11.7,0,23.4,0,35.1c0,1.1-0.3,1.4-1.4,1.4c-5.1-0.1-10.3,0-15.4,0c-0.4,0-1.1-0.3-1.2,0.5
		c0,9.1,0.1,18.1,0,27.2c0,1.2,0.3,1.6,1.5,1.5c3.2-0.1,6.3,0,9.5-0.1c0.8,0,1.2,0.1,1.1,1.1c-0.1,4.5,0,9.1,0,13.6
		c0,0.8-0.2,1.1-1,1.1c-3.3-0.1-6.6,0-10,0c-1,0-1.2,0.3-1.2,1.2c0,16.2,0,32.4,0,48.7c0,0.5,0,0.9,0,1.4c0,0.7,0.1,0.6,0.1,1
		c-1.3,0-2.8,0-4.1,0c0-0.3,0-0.5,0-0.7c-0.1-1.1-0.1-0.7-0.1-1.1c0-17,0.2-34,0.2-51c0-0.4-0.2-0.6-0.1-1.1c0-1,0.1-1.9,1.2-2.2
		c1-0.3,2-0.5,3-0.4c2.3,0.2,4.6-0.2,6.9,0.1c0.6-0.1,1.4-0.6,1.2-3.1c0-0.2-0.1-0.8-0.1-1.1c0-3.1,0-3.1-1.1-3.2
		c-2.5,0-4.9-0.1-7.4-0.1c-2.6,0-3.3-0.3-3.4-3.3c-0.3-7.8-0.1-13.5-0.7-23.3c-0.1-0.6,0.1-3,0-3.8c0-6.8-0.4-6.7,2.6-6.7
		c5.3,0,10.6,0,15.9,0c0.4-0.2,0.3-0.6,0.3-0.9c0-9.4,0-18.8,0-28.2c0-0.4,0.1-0.8-0.4-1c-10.1,0-20.2,0-30.3,0
		c-0.6,0.2-0.4,0.7-0.4,1.1c0,4.9,0,9.8,0,14.6c0,0.4-0.1,0.9,0.3,1.2c0.1,1.1-0.7,1-1.3,1c-2.1,0-4.3,0-6.4,0c-16,0-32.1,0-48.1,0
		c-1,0-1.4,0.3-1.3,1.2c0.2,5.2,0,0,0.2,6.9c0,0.2,0.2,6.1-0.1,6.5c-0.7,0.9-12.9,0-16.8,0c-2.6,0-1.7-0.5-1.7-12.5 M423,271
		c0-3.1,0-6.2,0.1-9.4c0-0.8-0.5-0.7-1-0.7c-3.5,0-7,0-10.4,0c-0.8,0-1,0.2-1,1c0,3,0,6,0,9c0.1,0.7,0.6,0.5,1,0.5
		c3.5,0,6.9,0,10.4,0C422.4,271.4,422.8,271.5,423,271z M390.6,286.6c4.7,0,9.5,0,14.2,0c0.8,0,1.1-0.1,1.1-1c0-4.3-0.1-8.6,0-12.9
		c0-1-0.3-1.1-1.2-1.1c-4.7,0-9.4,0-14.1,0c-0.6,0.1-0.5,0.5-0.5,0.9c0,4.4,0,8.7,0,13.1C390.2,286,390.1,286.5,390.6,286.6z"/>
	<path class="st2" d="M419.6,256.6c-0.9-0.7-0.5-1.6-0.2-2.4C419.6,255,419.5,255.8,419.6,256.6z"/>
	<path class="st2" d="M419.3,212.6c0-0.1-0.1-0.1-0.1-0.2c0,0,0.1,0,0.1-0.1C419.4,212.5,419.4,212.6,419.3,212.6z"/>
	<path class="st2" d="M386.6,267.4c6.6,0,13.1,0,19.7,0c-0.2,0.5-0.6,0.4-1,0.4c-5.9,0-11.8,0-17.7,0
		C387.2,267.7,386.7,268,386.6,267.4z"/>
	<path class="st2" d="M410.1,275.3c0,4.6,0,9.3,0,13.9c0,0.4,0,0.9,0,1.3c-0.6-0.2-0.4-0.6-0.4-1c0-4.5,0-9,0-13.5
		C409.6,275.9,409.2,275.2,410.1,275.3z"/>
	<path class="st2" d="M433.5,74.4c0-9.8,0-19.5,0-29.3c0-0.3,0-0.6-0.1-0.8c0.5,0.2,0.4,0.6,0.4,1c0,9.4,0,18.8,0,28.2
		C433.8,73.8,434,74.2,433.5,74.4z"/>
	<path class="st2" d="M390.6,271.6c0,3.3-0.1,6.6-0.1,9.9c0,1.7,0,3.4,0,5.1c-0.6-0.1-0.4-0.6-0.4-1c0-4.4,0-8.7,0-13.1
		C390.1,272.1,390,271.6,390.6,271.6z"/>
	<path class="st2" d="M410.6,270.8c2.6,0.2,5.2,0.1,7.8,0.1c1.5,0,3.1,0,4.6,0c-0.2,0.5-0.6,0.4-1,0.4c-3.5,0-6.9,0-10.4,0
		C411.2,271.3,410.7,271.5,410.6,270.8z"/>
	<path class="st2" d="M403.1,44.2c0,5,0,9.9,0,14.9c0,0.7,0,1.3-0.1,2c-0.5-0.3-0.3-0.8-0.3-1.2c0-4.9,0-9.8,0-14.6
		C402.7,44.9,402.5,44.4,403.1,44.2z"/>
	<path class="st2" d="M359.3,362.9c-0.7,0.1-0.6-0.3-0.6-0.7c0-4-0.4-8-0.2-12c0-0.9-0.2-1.2-1.1-1c-0.3,0.1-0.6,0-0.8,0
		c-2.2-0.1-2.1-0.1-3.1,1.9c-2.2,4.5-4.8,8.6-7.3,12.9c-2.6,4.4-5.9,8.3-9,12.3c-0.9,1.3-1.9,2.6-3.4,3.5c-0.4,0.2-0.7,0.6-1,1
		c-3.1,4-6.7,7.5-10.5,10.8c-3.8,3.2-7.8,6.2-11.7,9.2c-1.7,1.3-3.5,2.3-5.5,3.1c-1.3,0.5-2.5,1.3-3.7,2.1c-2.5,1.7-5.4,2.7-8.1,3.9
		c-2.6,1.1-5.4,1.7-8.1,2.6c-2.7,0.9-5.5,1.6-8.1,2.7c-1.9,0.8-3.9,1.1-5.9,1.4c-2.4,0.3-4.6,1-6.9,1.4c-4.7,0.9-9.4,1.3-14.2,1
		c-3.4-0.2-6.8,0.1-10.2,0.2c-2.5,0.1-5,0-7.6-0.3c-2.5-0.4-5.1-0.7-7.7-0.6c-1.5,0.1-2.9-0.5-4.4-0.4c-0.4,0-0.8-0.4-1.3-0.6
		c-1.5-0.6-3-1-4.5-1.5c-3.8-1.5-7.9-2.1-11.8-3.6c-4.7-1.9-9.5-3.5-13.9-5.9c-2-1.1-3.8-2.3-5.8-3.5c-2.3-1.4-4.6-2.9-6.9-4.3
		c-5-3-9.3-6.9-13.1-11.3c-3.3-3.8-6.8-7.5-9.9-11.5c-1.6-2.1-3.3-4.3-5-6.4c-1.7-2.1-3.2-4.4-4.8-6.5c-2.9-3.8-5.1-8-6.9-12.4
		c-1.4-3.5-3-7-4.4-10.6c-0.4-1.1-0.6-2.3-0.9-3.4c-0.7-2.4-1.6-4.8-2.5-7.1c-1-2.7-1.6-5.6-2.4-8.4c-0.7-2.7-0.8-5.5-1.3-8.2
		c-0.2-1,0-2,0.1-3.1c0-1.6-0.2-3.2-0.4-4.8c-0.7-5.4-0.2-10.8,0-16.2c0.2-5.4,1.6-10.6,3.2-15.7c1.4-4.7,3.4-9.1,5-13.7
		c0.8-2.3,2.3-4.2,3.4-6.3c2.3-4.2,4.5-8.5,7.3-12.5c6.3-9.2,14-17,23.2-23.4c7.9-5.5,16.6-9.7,25.9-12.4
		c10.9-3.2,22.1-4.3,33.5-3.2c11.4,1,22.3,4.2,32.5,9.3c2.4,1.2,4.8,2.6,7.2,3.9c1.8,1,3.8,1.5,5.9,1.4c3.8-0.2,7.4,0.6,10.9,2
		c0.3,0.1,0.7,0.2,1,0.4c0.4,0.2,0.6,0.5,0.5,1c-0.1,0.5-0.5,0.3-0.9,0.4c-3.4,0.6-6.9-0.2-10.3,0.2c-4.3,0.5-8.3,1.7-11.5,4.4
		c-2.8,2.4-5.5,5.2-6.4,9.1c-0.3,1.6,0,3.1,0.8,4.4c0.5,0.9,1.5,1.4,2.7,1.5c3.4,0.2,6.6-0.8,9.8-1.5c2.4-0.5,4.9-0.1,7.3,0.1
		c0.5,0,0.8,0.3,1.1,0.7c1.2,2,3.3,2.9,5,4.3c2.8,2.4,6.3,3.6,9.9,4.3c3.4,0.7,6.7,1.9,10,2.8c1.6,0.4,1.9,2.2,0.8,3.5
		c-1.5,1.7-3.4,2.3-5.5,2.3c-1.8,0.1-3.6,0.4-5.4,0.6c-0.7,0.1-1.4,0.1-2.1,0c-1.4-0.3-2.6,0.2-3.7,0.8c-1.1,0.6-1.2,2.7-0.3,3.5
		c0.7,0.7,1.6,1.1,2.6,1.2c3.6,0.4,7.3,0.5,10.9,1.5c0.9,0.3,1.6,0.8,2,1.7c1,2.6,0.2,4.3-2.4,5.1c-1,0.3-2.1,0.6-3.1,0.5
		c-1.9-0.2-3.5,0.7-5.3,1c-1.1,0.2-1.4,1.1-1.2,2c0.2,1.1,1,1.5,2,1.7c1.7,0.3,3.5,0.3,5.2,0.3c1.8,0,3.6,0.2,5.3,0.9
		c0.9,0.4,1.2,1,1,1.9c-0.4,1.6-1.2,2.8-3,3.4c-3.5,1.2-7.2,1-10.7,2c-0.6,0.2-1.2,0.4-1.8,0.5c-1.6,0.3-3.1,0.2-4.7,0
		c-1.3-0.2-2.2,0.1-2.6,1.1c-0.4,1-0.1,1.8,1.1,2.5c1.5,1,3.3,1.2,5,1.5c2.5,0.5,4.7,1.5,6.9,2.7c0.3,0.2,0.5,0.5,0.7,0.9
		c0.2,0.6,0.5,1.3,0.9,1.8c0.5,0.7,1.3,1.5,0.8,2.3c-0.5,0.9-1.5,1.6-2.6,1.7c-2.8,0.2-5.7,0.2-8.5-0.3c-1.7-0.3-3.4-0.5-5.1-0.4
		c-2,0-3.2,1.2-3.7,2.8c-0.4,1.4-1.3,1.8-2.4,1.8c-4.2-0.2-7.9,1.7-11.8,2.6c-3.2,0.8-5.9,2.7-9.2,3.9c3.1,0.3,5.9,0.6,8.6,1.5
		c3.3,1.1,5.6,3.1,7,6.3c0.2,0.4,0.5,0.9,0,1.2c-0.5,0.4-0.8-0.1-1.1-0.4c-3-2.6-6.7-4-10.4-5.2c-3-0.9-5.9-1.2-8.8-0.5
		c-3.6,0.9-6.4,3-8.8,5.9c-1.4,1.7-2.6,3.5-3.2,5.7c-0.7,2.8-0.2,5.5,1.1,8.1c1.3,2.5,3.7,2.9,6.1,3.4c3.1,0.5,6.2,1.3,9.4,1.6
		c1.2,0.1,2.4,0.2,3.5,0.2c3.7,0,7.4-0.2,11,0.2c3.1,0.3,6.2,0.7,9.3,1c2.1,0.2,4.2,0.5,6.2,0.6c3.6,0.3,7.2,0.7,10.9,0.7
		c4.2,0,8.4,0.1,12.6-0.1c5-0.2,10-0.6,15-1.1c3.3-0.4,6.5-1.2,9.6-2.3c0.5-0.2,0.8-0.5,0.9-1c0.3-1.3,0.1-2.6,0.2-3.9
		c0.2-2.8,0.2-5.7,0.4-8.5c0-0.4-0.1-0.8-0.3-1.3c-1.1,0.9-2.1,1.8-3.2,2.6c-2.3,1.6-4.6,2.9-7.5,3.4c-2.8,0.5-5.7,1-8.5,1.5
		c-0.9,0.2-2.2-0.2-3.3-0.3c-4.8-0.5-9.6-0.8-14.4-1.5c-4.3-0.7-8.7-0.1-13-0.7c-1.6-0.2-3.2-0.5-4.7-1.2c-0.3-0.2-0.9-0.2-0.7-0.9
		c0.1-0.5,0.4-0.9,0.9-1c0.4-0.1,0.9-0.1,1.3-0.1c3.9,0.7,7.7,0.1,11.6-0.1c1.6-0.1,3.1,0.3,4.6,0.4c3.5,0.3,6.9,1,10.4,1
		c3,0.1,5.9,0.7,9,0.3c0.9-0.1,1.8-0.4,2.6-0.7c2-0.8,4.2-0.9,6.3-1.5c2.2-0.7,3.9-2.2,5.5-3.7c1.3-1.3,2.6-2.7,3.9-4
		c2.7-2.7,4.2-6,5.2-9.6c1.7-5.7,2.5-11.7,4.3-17.4c0.4-1.4,1-2.8,1.7-4.2c2.1-4.6,3.9-9.4,7.3-13.2c1.8-2,3.3-4.2,5-6.3
		c2.1-2.4,3.3-5.2,4-8.3c0.4-2,1-4,0.5-6.1c-0.1-0.3,0-0.7,0.3-0.8c0.4-0.2,0.6,0.2,0.8,0.4c1.9,2,2.8,4.3,2.3,7
		c-0.9,5.6-3.5,10.4-7.4,14.4c-6.7,6.7-10.7,14.8-12.7,23.9c-0.7,3.2-1.5,6.4-2.1,9.6c-0.9,5.1-3.6,9.3-6.9,13.1
		c-0.4,0.5-0.6,1.1-0.9,1.6c1,0.8,2,0.7,3.1,0.7c2.6,0,5.2,0,7.8,0c0.6,0,0.7-0.5,1.2-0.6c0.8-0.1,1.3-0.6,1.5-1.4
		c0.8-2.7,1.6-5.3,2.1-8.1c0.4-2.5,1.6-4.6,2.7-6.8c2-4,4.1-8,6-12.1c0.8-1.8,1.8-3.6,2.7-5.4c1.3-2.5,2.4-5.2,3.5-7.9
		c0.8-1.9,1.6-3.8,2.4-5.7c0.2-0.4,0.3-0.9,0.9-0.8c0.5,0.1,0.8,0.6,0.8,1.1c0.1,1.3,0.3,2.6,0.3,3.9c0,7.5-0.2,15-0.4,22.5
		c-0.1,5.7-1.6,11.2-2.3,16.8c-0.4,2.9-1.1,5.7-1.9,8.6c-1.2,4.2-1.9,8.5-1.8,12.8c0.1,1.7,0,3.3-0.1,5c-0.1,1.6,0.2,2.1,0.3,4.7
		c-0.1,0.4,0.3,0.4,0.6,0.4c0.6,0,1.3,0,1.9,0c3.2,0,6.5,0,9.7,0c0.6,0,0.9,0,0.9,0.8c0,4.9,0,9.9-0.1,14.8c-0.6-0.5-1.1,0-1.7,0
		c-4.2-0.1-8.4,0-12.6,0C360,362.6,359.5,362.3,359.3,362.9z M335.2,323.6c-0.6,0.1-0.4,0.6-0.4,1c0,5.4,0,10.8,0,16.1
		c0,0.4-0.1,0.8,0.4,1c2.4,0,4.8,0,7.2,0c1,0,1.5,0.3,1.4,1.4c-0.1,0.7-0.3,1.6,0.2,2.3c0.2,0.4,0.6,0.3,1,0.3c3.8,0,7.6,0,11.4,0
		c0.3,0,0.7,0.1,1-0.3c0.3-0.3,0.2-0.8,0.2-1.1c0-6.5,0-13.1,0-19.6c0-0.9-0.2-1.1-1.1-1.1C349.4,323.6,342.3,323.6,335.2,323.6z
		 M340.6,350.9C340.6,350.9,340.6,350.9,340.6,350.9c0-1.7,0-3.5,0-5.2c0-0.6-0.2-0.7-0.7-0.7c-3.2,0-6.5,0-9.7,0
		c-0.6,0-0.9,0.1-0.8,0.8c0,3.4,0.1,6.7,0,10.1c0,0.7,0.2,0.9,0.9,0.9c3.2,0,6.3,0,9.5,0c0.7,0,0.9-0.2,0.9-0.9
		C340.6,354.2,340.6,352.6,340.6,350.9z M366.6,351.1c-1,0-2.1,0-3.1,0c-0.5,0-0.8,0.1-0.8,0.7c0,2.1,0,4.1,0,6.2
		c0,0.5,0.1,0.8,0.7,0.8c2.1,0,4.1,0,6.2,0c0.5,0,0.8-0.1,0.8-0.7c0-2.1,0-4.1,0-6.2c0-0.7-0.3-0.8-0.8-0.8
		C368.6,351.1,367.6,351.1,366.6,351.1z M363.3,320.8c0.7-1.6,0.9-3.3,1-5.1c0-0.2-0.1-0.4-0.3-0.4c-0.2,0-0.3,0.2-0.4,0.3
		C362.9,317.4,363,319.1,363.3,320.8z"/>
	<path class="st2" d="M407.8,334.5c-5.6,0-11.2,0-16.9,0.1c-0.7,0-0.7-0.3-0.7-0.9c0-3,0-6,0-9c0-0.8-0.3-0.9-0.9-0.9
		c-3.9,0-7.8,0-11.6,0c-0.8,0-1-0.3-1-1c0-6.1,0-12.1,0-18.2c0-1,0.3-1.1,2.2-0.9c3.7,0.5,7.5,0.7,11.3,0.5c7.1-0.3,8.1-1.4,8.1,0.4
		c0,3.2,0,6.5,0,9.7c0,0.9,0.7,1.6,1.6,1.5c2.6-0.3,5.2-0.1,7.9-0.1C407.8,322,407.8,328.2,407.8,334.5z M387.2,307.9
		c-1.9,0-3.9,0-5.8,0c-0.7,0-0.9,0.2-0.9,0.9c0,3.3,0,6.6,0,10c0,0.7,0.2,0.9,0.9,0.9c3.8,0,7.7,0,11.5,0c0.7,0,0.9-0.2,0.9-0.9
		c0-3.3,0-6.6,0-10c0-0.7-0.2-0.9-0.9-0.9C391,307.9,389.1,307.9,387.2,307.9z M403.6,325.1c0-1.4,0-2.8,0-4.3
		c0-0.6-0.1-0.9-0.8-0.9c-1.1,0.1-2.1,0-3.2,0c-0.6,0-0.8,0.2-0.7,0.7c0,1.1,0,2.2,0,3.3c0.1,0.9-0.1,1.2-1.1,1.1
		c-0.9-0.1-1.9,0-2.8,0c-0.6,0-0.9,0.1-0.9,0.8c0,1.2,0,2.5,0,3.7c0,0.6,0.2,0.7,0.8,0.7c2.7,0,5.3,0,8,0c0.7,0,0.8-0.3,0.8-0.9
		C403.6,328,403.6,326.5,403.6,325.1z"/>
	<path class="st1" d="M390.6,121c4.4,0,8.9,0,13.3,0c0.9,0,1.2,0.2,1.2,1.1c0,8.5,0,17,0,25.5c0,0.9-0.2,1.1-1.1,1.1
		c-8.9,0-17.8,0-26.7,0c-0.8,0-1.2-0.2-1.2-1.1c0-8.5,0-17.1,0-25.6c0-0.8,0.2-1.1,1.1-1C381.7,121,386.2,121,390.6,121z
		 M390.6,144.5c3.1,0,6.2,0,9.3,0c0.7,0,1-0.1,1-0.9c0-5.8,0-11.6,0-17.4c0-0.7-0.2-0.9-0.9-0.9c-6.2,0-12.4,0-18.6,0
		c-0.8,0-1,0.3-1,1c0,5.8,0,11.6,0,17.3c0,0.8,0.2,1,1,1C384.4,144.5,387.5,144.5,390.6,144.5z"/>
	<path class="st2" d="M363.6,379.7c0,3.1,0,6.3,0,9.4c0,0.8-0.3,0.9-1,0.8c-3-0.2-6-0.6-9-0.3c-2.8,0.3-5.6,0.2-8.4,0.4
		c-0.6,0-1.1-0.5-1.1-1.1c0-6.2,0-12.5-0.1-18.7c0-0.6,0.1-0.9,0.8-0.9c5.8-0.2,11.7-0.4,17.5-0.3c0.7,0,1.2,0.6,1.1,1.2
		c-0.1,3.2,0,6.3,0,9.5C363.5,379.7,363.5,379.7,363.6,379.7z M347.5,385.8c3.9,0,7.8,0,11.6,0c0.8,0,1.1-0.1,1.1-1
		c0-4.1,0-8.2,0-12.2c0-0.8-0.2-1-1-1c-3.6,0-7.2,0-10.8,0c-0.3,0-0.7-0.1-1,0.2c-0.4,0.2-0.3,0.5-0.3,0.8c0,4.1,0,8.2,0,12.3
		C347.1,385.3,347.1,385.7,347.5,385.8z"/>
	<path class="st2" d="M333.3,235.6c3.2-0.3,6.3,1.3,8.2,4.8c1,1.8,1.5,3.6,1.2,5.8c-0.3,2.1-0.7,4.1-1.6,6c-1.8,4-5.5,6.1-9.9,5.8
		c-4.7-0.3-8.4-4.3-9.1-7.3c-0.9-3.6-0.9-7.1,1.3-10.2C325.5,237.3,328.5,235.5,333.3,235.6z M324.3,247.3c0,2.1,0.8,3.9,2,5.6
		c2.1,2.9,5.1,3.5,8.3,2c3.9-1.8,5.1-5.6,4.9-9.1c-0.2-3.2-2.8-6.2-5.6-6.7C328.7,238,324.3,241.8,324.3,247.3z"/>
	<path class="st2" d="M359.3,362.9c0.2-0.6,0.7-0.3,1.1-0.3c4.2,0,8.4,0,12.6,0c0.6,0,1.1-0.5,1.7,0c0.1,0.4-0.2,0.4-0.5,0.4
		C369.2,362.9,364.2,362.9,359.3,362.9z"/>
	<path class="st2" d="M407.8,334.5c0-6.3,0-12.5,0-18.8c0.5,0.1,0.3,0.6,0.3,0.9c0,5.7,0,11.4,0,17
		C408.1,333.9,408.3,334.4,407.8,334.5z"/>
	<path class="st2" d="M343.1,319.4C343.2,319.4,343.2,319.3,343.1,319.4c0.1,0,0.1,0,0.2,0.1c0,0,0,0-0.1,0.1
		C343.2,319.5,343.2,319.4,343.1,319.4z"/>
	<path class="st2" d="M335.1,323.6c0,6,0,12,0,18.1c-0.6-0.1-0.4-0.6-0.4-1c0-5.4,0-10.8,0-16.1
		C334.7,324.2,334.6,323.7,335.1,323.6z"/>
	<path class="st2" d="M363.3,320.8c-0.3-1.7-0.4-3.5,0.2-5.2c0.1-0.2,0.2-0.4,0.4-0.3c0.2,0,0.3,0.2,0.3,0.4
		C364.2,317.5,364,319.2,363.3,320.8z"/>
	<path class="st2" d="M344,345.4c4.4,0,8.9,0,13.3,0c-0.3,0.4-0.6,0.3-1,0.3c-3.8,0-7.6,0-11.4,0C344.6,345.7,344.3,345.8,344,345.4
		z"/>
	<path class="st2" d="M347.4,371.8c0,4.7,0,9.3,0.1,14c-0.5-0.2-0.4-0.5-0.4-0.9c0-4.1,0-8.2,0-12.3
		C347.1,372.3,347.1,372,347.4,371.8z"/>
</g>
</svg>
