<?xml version="1.0" encoding="utf-8"?>
<!-- Generator: Adobe Illustrator 21.1.0, SVG Export Plug-In . SVG Version: 6.00 Build 0)  -->
<svg version="1.1" id="Layer_1" xmlns="http://www.w3.org/2000/svg" xmlns:xlink="http://www.w3.org/1999/xlink" x="0px" y="0px"
	 viewBox="0 0 841.9 595.3" style="enable-background:new 0 0 841.9 595.3;" xml:space="preserve">
<style type="text/css">
	.st0{fill:#0292CE;}
	.st1{fill:#3D8517;}
</style>
<g>
	<path class="st0" d="M337.2,126.3c0-0.9,0-1.7,0-2.6c0-17.1,0-34.3,0-51.4c0-0.6,0.5-1,1-1c48.7,0,97.3,0,146,0c0.1,0,0.2,0,0.3,0
		c0.5,0.1,0.7-0.1,0.7-0.6c0-1,0-2,0-3c-0.1-0.7,0.2-0.8,0.9-0.8c2.4,0,4.8,0,7.2,0c0.6,0,0.8-0.2,0.8-0.8c0-6.4,0-12.8,0-19.2
		c0-0.4,0.4-0.8,0.8-0.8c9.5,0,19,0,28.6,0c0.6,0,0.8,0.1,0.8,0.8c0,9.1,0,18.2,0,27.3c0,0.7-0.2,0.8-0.8,0.8c-7,0-13.9,0-20.9,0
		c-0.4,0-0.7,0.3-0.7,0.8c0,1.9,0,3.9,0,5.8c0,0.6,0.2,1.3-0.1,1.7c-0.3,0.4-1,0.1-1.6,0.1c-0.6,0-0.9,0.2-0.9,0.9
		c0,7.3,0,14.6,0,21.9c0,1.5,0,1.6,1.6,1.6c4.9,0,9.8,0,14.7,0c0.6,0,0.8,0.2,0.8,0.8c0,2.9,0,5.9,0,8.8c0,0.4,0,0.7,0.6,0.7
		c4.7,0,9.4,0,14.1,0c0.9,0,1.7,0,2.6,0c0.1,0,0.1,0,0.2,0c2,0,3.9,0,5.9,0c0.5,0,0.7,0.1,0.7,0.6c0,7.6,0,15.3,0,22.9
		c0,0.5-0.2,0.6-0.6,0.6c-2,0-4,0-6,0c-1.1,0-2.1-0.2-3.2,0.1c-0.7,0-1.4-0.1-2-0.1c-4.7,0-9.3,0-14,0c-0.6,0-0.8-0.1-0.8-0.8
		c0-4.7,0-9.4,0-14.1c0-0.5-0.1-0.7-0.7-0.7c-4.4,0-8.8,0-13.3,0c-0.7,0-0.8,0.2-0.8,1c0.3,3.4,0.1,6.8,0,10.2
		c0,0.6,0.2,0.7,0.7,0.7c1,0,1.9,0,2.9,0c0.8,0,0.9,0.2,0.6,1.8c-0.7,4.1-0.7,8.3,0.1,12.4c0.2,1.2,0,1.4-0.6,1.4
		c-1.1,0-2.3,0-3.4,0c-0.3,0-0.7,0-0.8,0.4c-0.2,0.9-0.4,1.7-0.1,2.6c0.1,0.4,0.1,0.9,0,1.3c-0.3-0.2-0.2-0.4-0.2-0.6
		c0-0.2,0-0.5,0.3-0.5c0.3,0,0.3,0.2,0.4,0.4c0,0.4,0.5,0.8-0.2,1.1c-0.2,0.1-0.1,0.4,0,0.6c0.2,0.5,0.5,1,1,1.2
		c0.4,0.2,0.7,0.5,0.9,0.9c1.6,2.9,2,6,2.2,9.2c0,0.6-0.3,1.1-0.3,1.7c0,0.9-0.4,1.6-0.7,2.4c-0.1,0.2-0.2,0.4-0.4,0.4
		c-0.3,0-0.2-0.3-0.3-0.5c0-0.2,0-0.3,0-0.5c0.1-2.4-0.1-4.8-0.6-7.2c-0.6-2.5-1.4-4.9-3.3-6.9c-2.3-2.4-5.1-2.7-9.6-1.1
		c-1,0.3-1.8-0.2-2.5-1c-0.2-0.2-0.7,0.2-0.8-0.2c-0.1-0.7-0.5-1.4-0.5-2.1c0.1-2.4,0.4-4.8,0.2-7.2c-0.1-0.8-0.5-1.6-1-1.4
		c-1.2,0.4-2.2-0.3-3-0.9c-2.4-1.9-3.9-4.3-4.5-7.3c-0.5-2.8-0.6-5.6-1-8.5c-0.2-1.2-0.3-2.4-0.6-3.6c-0.1-0.3,0-0.8-0.6-0.7
		c-0.7,0.2-1.5,0.3-2.2,0.6c-2.7,0.9-4.8,2.7-7.1,4.2c-1.5,0.9-2.9,2-4.4,2.9c-1.6,1-3.5,1.6-4.9,2.8c-1.2,1-2.6,1.8-3.5,3.3
		c-0.7,1.1-0.6,2.3-1.2,3.4c-0.1,0.2-0.1,0.6-0.4,0.5c-0.3,0-0.4-0.4-0.4-0.6c-0.1-0.8-0.2-1.5,0.1-2.2c0.9-2.3,2.6-4,4.4-5.6
		c0.7-0.6,1.6-0.8,2.2-1.6c0.5-0.7,1.2-1.4,2-1.7c1.9-0.8,3.5-2,5-3.1c0.4-0.3,0.5-0.5,0.1-0.9c-2.1-2.2-4.3-4.2-6.7-6.2
		c-12.8-10.7-27.5-17.1-44.1-19.3c-5.8-0.8-11.7-0.9-17.5-0.5c-6.2,0.5-12.3,1.6-18.3,3.4c-5.3,1.6-10.4,3.7-15.2,6.3
		c-7.4,3.9-14.1,8.9-20.1,14.8c-0.9,0.9-1.7,1.8-2.6,2.6c-0.2,0.2-0.5,0.5-0.7,0.5c-0.4,0-0.8-0.4-0.8-0.7 M509.3,49.3
		c-3.9,0-7.7,0-11.6,0c-0.5,0-0.8,0.1-0.8,0.7c0,5.5,0,11,0,16.6c0,0.5,0.1,0.7,0.6,0.7c1.2,0,2.4,0,3.6,0c0.5,0,0.7,0.1,0.7,0.7
		c0,1.3,0,2.6,0,3.9c0,0.6,0.1,0.8,0.8,0.8c6,0,12.1,0,18.1,0c0.6,0,0.8-0.2,0.8-0.8c0-7.2,0-14.5,0-21.7c0-0.7-0.2-0.8-0.8-0.8
		C516.8,49.3,513,49.3,509.3,49.3z M527,121.1c-3.3,0-6.5,0-9.8,0c-0.6,0-0.7,0.2-0.7,0.8c0,5.7,0,11.4,0,17.1
		c0,0.6,0.1,0.8,0.7,0.8c6.5,0,13,0,19.5,0c0.6,0,0.7-0.2,0.7-0.8c0-5.7,0-11.4,0-17.1c0-0.7-0.2-0.8-0.8-0.8
		C533.5,121.2,530.2,121.1,527,121.1z M505.9,110.9c-2.3,0-4.7,0-7,0c-0.5,0-0.7,0.1-0.7,0.6c0,4,0,8.1,0,12.1
		c0,0.5,0.1,0.6,0.6,0.6c4.7,0,9.4,0,14,0c0.5,0,0.7-0.2,0.7-0.7c0-4,0-8,0-12c0-0.5-0.2-0.7-0.7-0.6
		C510.5,110.9,508.2,110.9,505.9,110.9z M483,91.4C483,91.4,483,91.4,483,91.4c2.2,0,4.3,0,6.5,0c0.3,0,0.6-0.3,0.6-0.6
		c0-2.2,0-4.3,0-6.5c0-0.5-0.2-0.6-0.6-0.6c-1.1,0-2.2,0-3.4,0c-0.4,0-0.6-0.3-0.6-0.6c0-1.4,0-2.8,0-4.2c0-0.4-0.3-0.7-0.7-0.7
		c-2.7,0-5.5,0-8.2,0c-0.5,0-0.7,0.1-0.7,0.6c0,3.9,0,7.9,0,11.8c0,0.5,0.1,0.7,0.7,0.7C478.8,91.4,480.9,91.4,483,91.4z M501,146.7
		c0-1.1,0-2.2,0-3.3c0-1.8,0-1.8-1.8-1.8c-2.2,0-4.4,0-6.7-0.1c-0.4,0-0.6,0.1-0.6,0.5c0,3,0,6,0,8.9c0,0.5,0.2,0.6,0.9,0.6
		c2.4-0.3,4.9-0.2,7.3,0c0.7,0.1,0.9-0.1,0.9-0.6C501,149.6,501,148.2,501,146.7z M495.8,80.9c0.9,0,1.7,0,2.6,0
		c0.5,0,0.6-0.1,0.6-0.6c0-1.4,0-2.9,0-4.3c0-0.5-0.1-0.6-0.6-0.6c-1.2,0-2.5,0-3.7,0c-0.5,0-0.7-0.1-0.7-0.6c0-1.4,0-2.7,0-4.1
		c0-0.5-0.1-0.7-0.6-0.7c-1.6,0-3.2,0-4.9,0c-0.4,0-0.6,0.1-0.6,0.6c0,1.4,0,2.9,0,4.3c0,0.5,0.2,0.6,0.6,0.6c1.1,0,2.2,0,3.3,0
		c0.6,0,0.8,0.1,0.8,0.7c0,1.4,0,2.8,0,4.2c0,0.4,0.1,0.6,0.6,0.6C494.1,80.9,494.9,80.9,495.8,80.9z M484.2,110.7c0.7,0,1.4,0,2,0
		c0.4,0,0.5-0.1,0.5-0.5c0-1.2,0-2.5,0-3.7c0-0.3-0.1-0.5-0.5-0.5c-1.4,0-2.7,0-4.1,0c-0.4,0-0.5,0.1-0.5,0.5c0,1.2,0,2.5,0,3.7
		c0,0.4,0.2,0.5,0.6,0.5C482.9,110.7,483.6,110.7,484.2,110.7z M491.1,155.6c1.2,0,2.3,0,3.5,0c0.5,0,0.6-0.1,0.6-0.6
		c0-0.5-0.2-0.5-0.6-0.5c-1.7,0-3.4,0-5.1,0c-0.7,0-0.8-0.2-0.8-0.8c0-1.6,0-3.3,0-4.9c0-0.6-0.3-0.6-0.7-0.5
		c-0.4,0.1-0.9-0.3-0.9,0.5c0,2.1,0,4.2,0,6.4c0,0.5,0.2,0.6,0.6,0.6C488.8,155.5,490,155.6,491.1,155.6z M490,79.6
		c0-0.3,0-0.6,0-0.9c0-0.2,0-0.3-0.3-0.4c-1.1-0.3-1.6,0-1.6,1.2c0,0.4,0,0.7,0,1.1c0,0.2,0,0.3,0.3,0.4c1.1,0.3,1.6,0,1.6-1.2
		C490,79.7,490,79.6,490,79.6z M499,71.4c0-0.2,0-0.4,0-0.6c0.1-0.6-0.1-0.8-0.7-0.8c-1.4,0-1.4,0-1.4,1.4c0,0.3,0,0.6,0,0.9
		c0,0.2,0,0.3,0.2,0.3c0.6,0,1.2,0.2,1.8-0.1C499.2,72.3,498.9,71.7,499,71.4z"/>
	<path class="st1" d="M473.1,43.1c-0.4,0-1,0.1-1.3,0.1c-53.2,0-106.4,0-159.6,0c-0.7,0-1.4,0-2.1,0c-0.8,0.1-1.1,0.4-1.1,1.2
		c0,1,0,2,0,3c0,49.1,0,98.2,0,147.3c0,2.5,0.2,5,0.2,7.4c0,4.2,0.2,8.4,0.8,12.6c0.7,5,1.6,9.9,2.9,14.8c1,3.9,2.3,7.8,3.8,11.5
		c0.9,2.4,2,4.8,3.1,7.1c1.5,3.3,3.2,6.4,5.1,9.5c1.5,2.6,3.2,5.1,5,7.6c1.7,2.4,3.5,4.7,5.4,6.9c1.7,2,3.5,3.9,5.3,5.7
		c1.9,1.9,3.9,3.7,5.8,5.6c2.8,2.6,5.9,4.8,8.9,7.2c1.2,0.9,2.5,1.6,3.7,2.5c2,1.3,3.9,2.7,6.1,3.7c0.2,0.1,0.5,0.2,0.6,0.4
		c0.4,0.5,1,0.7,1.5,0.9c0.3,0.1,0.6,0.2,0.9,0.4c1.3,0.9,2.8,1.5,4.2,2.2c1.3,0.6,2.7,1.2,4,1.8c1.7,0.8,3.5,1.1,5.1,2.1
		c0.9,0.5,2.1,0.1,2.8,1.2c0,0,0.1,0.1,0.1,0.1c2.7,0.3,5.3,1.2,7.9,2c2.8,0.8,5.7,1.1,8.5,1.8c2.6,0.7,5.5,0.4,8.1,1.2
		c0.1,0,0.3,0.1,0.4,0.1c7.9,0.5,15.8,0.4,23.6-0.5c4.2-0.5,8.3-1.3,12.3-2.2c3.8-0.9,7.4-2,11.1-3.3c3.1-1.1,6.1-2.3,9.1-3.6
		c1.7-0.8,3.4-1.7,5.1-2.5c2-1,3.9-2.2,5.9-3.2c0.1-0.1,0.2-0.1,0.3-0.2c10.9-6.6,20.2-14.8,28.2-24.5c1.4-1.8,2.7-3.6,4.2-5.4
		c0-0.1,0.1-0.1,0.1-0.2c5.8-8.1,10.4-16.8,13.8-26.1c1.5-4.1,2.8-8.3,3.8-12.5c1.6-7.2,3-14.5,3.9-21.9c0-0.1,0-0.3,0-0.4
		c-0.2-6.5-0.3-6,0.1-17.3c0-0.1,0-1.8,0-1.8c-0.1-0.9-0.1-0.7-0.1-0.9c0.1-0.4-0.1-0.5-0.5-0.5c-0.8,0-1.7,0-2.5,0
		c-0.5-0.1-0.3,0.3-0.3,0.5c0,3,0,5.9,0,8.9c0,0.2-0.1,0.5,0.2,0.7c-0.1,0.3-0.4,0.2-0.6,0.2c-5,0-10,0-15,0c0,0,0,0,0,0
		c0-5,0-9.9,0-14.9c0-0.2-0.2-0.5,0.2-0.6c0.1,0.4,0.4,0.2,0.7,0.2c3.9,0,7.8,0,11.7,0c0.2,0,0.5,0.1,0.7-0.3c0.1-2.1,0.1-4.2,0-6.3
		c0-0.7,0.2-0.9,0.9-0.8c1.3,0,2.6,0,3.8,0c0.6,0,0.8-0.2,0.8-0.9c0-9.3,0-18.5,0-27.8c0-0.3,0.1-0.5-0.1-0.7
		c1.1-0.2,2.1-0.1,3.2-0.1c0,0.1,0,0.2,0,0.3c0,0-0.1,0-0.1,0c0,0,0,0.1,0.1,0.1c0,0.3,0,0.5,0,0.8c0,8.9,0,17.8,0,26.6c0,0,0,0,0,0
		c-0.2,0.6-0.5,1.1,0.1,1.6c1.7,0,3.4,0,5,0c0,0,0,0,0,0c0,3.9,0,7.8,0,11.6c0,0.6-0.2,0.6-0.7,0.6c-1.3,0-2.6,0-3.8,0
		c-0.5,0-0.7,0.1-0.7,0.6c0,6.8,0,13.7,0,20.5c0,3.2-0.7,6.3-1.4,9.5c-0.6,3.1-1.5,6.3-2.1,9.4c-1.2,5.7-2.8,11.2-4.8,16.7
		c-1.7,4.6-3.7,9-6,13.3c-3,5.6-6.4,11-10.2,16c-5.4,7-11.5,13.3-18.4,18.9c-5.4,4.4-11.2,8.3-17.3,11.7c-7.8,4.3-16,7.6-24.6,9.9
		c-6.9,1.9-14,3.1-21.2,3.6c-8.4,0.6-16.7,0.3-25-0.9c-7.6-1.1-15-3-22.2-5.6c-6.4-2.3-12.5-5.2-18.4-8.7
		c-7.9-4.6-15.1-10.1-21.6-16.5c-6.1-5.9-11.4-12.5-16.1-19.6c-2.2-3.4-4.3-6.9-6.1-10.5c-2.6-5.2-4.8-10.6-6.6-16.1
		c-1.4-4.4-2.6-8.9-3.5-13.5c-0.6-2.9-1-5.8-1.4-8.8c-0.2-1.3-0.4-2.5-0.6-3.8c-0.5-2.9-0.4-5.9-0.4-8.8c0.5-0.2,0.3-0.7,0.3-1
		c0-53.2,0-106.4,0-159.7c0,0,0,0,0,0c56,0,112,0,168,0c0.3-0.1,0.7,0.1,1.1,0.1c0.6,0.1,0.5,0.4,0.5,0.8c0.1,3,0.1,6,0.1,9
		c0,0,0,0,0,0c2-0.1,4.1-0.1,6.1-0.1c0.4,0,0.6-0.1,0.6-0.6c0-2.9,0.1-5.9,0.1-8.8c0-0.3-0.1-0.4,0-0.6c0.2-0.1,0.7,0,1,0
		c11.9,0,23.8,0,35.7,0c0.3,0,0.6,0.1,0.8-0.2c0.2-0.3,0.1-0.6,0.1-0.9c0-3.5,0-7,0-10.5c8.2,0,16.4,0,24.6,0c0.7,0,0.9,0.1,0.9,0.9
		c0,7.7,0,15.5,0,23.2c0,0.7-0.2,0.9-0.9,0.9c-3.4,0-6.8,0-10.2,0c-0.3,0-0.7-0.2-0.8,0.3c0,6,0,12,0,18c0,0.8,0.2,1,1,1
		c2.1-0.1,4.2,0,6.3,0c0.5,0,0.8,0.1,0.8,0.7c0,3,0,6,0,9c0,0.5-0.1,0.7-0.7,0.7c-2.2,0-4.4,0-6.6,0c-0.7,0-0.8,0.2-0.8,0.8
		c0,10.7,0,21.4,0,32.2c0,0.3,0,0.6,0,0.9c0,0.4,0.1,0.4,0,0.7c-0.9,0-1.9,0-2.7,0c0-0.2,0-0.3,0-0.5c0-0.7,0-0.5,0-0.7
		c0-11.3,0.1-22.5,0.1-33.7c0-0.2-0.1-0.4-0.1-0.7c0-0.7,0.1-1.3,0.8-1.5c0.7-0.2,1.3-0.3,2-0.3c1.5,0.1,3-0.1,4.5,0.1
		c0.4-0.1,0.9-0.4,0.8-2c0-0.1,0-0.6,0-0.7c0-2.1,0-2.1-0.7-2.1c-1.6,0-3.2-0.1-4.9-0.1c-1.7,0-2.2-0.2-2.2-2.2
		c-0.2-5.1-0.1-8.9-0.4-15.4c-0.1-0.4,0.1-2,0-2.5c0-4.5-0.3-4.4,1.7-4.4c3.5,0,7,0,10.5,0c0.3-0.1,0.2-0.4,0.2-0.6
		c0-6.2,0-12.4,0-18.6c0-0.2,0.1-0.5-0.2-0.7c-6.7,0-13.4,0-20.1,0c-0.4,0.1-0.3,0.5-0.3,0.7c0,3.2,0,6.4,0,9.7
		c0,0.3-0.1,0.6,0.2,0.8c0.1,0.7-0.4,0.7-0.9,0.7c-1.4,0-2.8,0-4.2,0c-10.6,0-21.2,0-31.8,0c-0.7,0-0.9,0.2-0.8,0.8
		c0.1,3.5,0,0,0.1,4.6c0,0.1,0.1,4.1,0,4.3c-0.5,0.6-8.5,0-11.1,0c-1.7,0-1.1-0.4-1.1-8.3 M536.1,181.5c0-2.1,0-4.1,0-6.2
		c0-0.6-0.3-0.5-0.7-0.5c-2.3,0-4.6,0-6.9,0c-0.5,0-0.7,0.1-0.7,0.7c0,2,0,4,0,6c0.1,0.4,0.4,0.3,0.7,0.3c2.3,0,4.6,0,6.8,0
		C535.7,181.7,535.9,181.8,536.1,181.5z M514.7,191.8c3.1,0,6.3,0,9.4,0c0.5,0,0.7-0.1,0.7-0.7c0-2.8,0-5.7,0-8.5
		c0-0.6-0.2-0.7-0.8-0.7c-3.1,0-6.2,0-9.3,0c-0.4,0.1-0.3,0.4-0.3,0.6c0,2.9,0,5.8,0,8.7C514.4,191.4,514.3,191.7,514.7,191.8z"/>
	<path class="st1" d="M533.8,171.9c-0.6-0.5-0.3-1-0.1-1.6C533.8,170.9,533.8,171.4,533.8,171.9z"/>
	<path class="st1" d="M533.7,142.9c0,0,0-0.1-0.1-0.1c0,0,0,0,0.1,0C533.7,142.8,533.7,142.8,533.7,142.9z"/>
	<path class="st1" d="M512,179.1c4.3,0,8.7,0,13,0c-0.1,0.4-0.4,0.3-0.7,0.3c-3.9,0-7.8,0-11.7,0C512.4,179.3,512.1,179.5,512,179.1
		z"/>
	<path class="st1" d="M527.5,184.3c0,3.1,0,6.1,0,9.2c0,0.3,0,0.6,0,0.9c-0.4-0.1-0.2-0.4-0.2-0.7c0-3,0-5.9,0-8.9
		C527.2,184.7,527,184.2,527.5,184.3z"/>
	<path class="st1" d="M543,51.5c0-6.5,0-12.9,0-19.4c0-0.2,0-0.4,0-0.5c0.3,0.1,0.2,0.4,0.2,0.7c0,6.2,0,12.4,0,18.6
		C543.2,51.1,543.3,51.4,543,51.5z"/>
	<path class="st1" d="M514.7,181.8c0,2.2,0,4.4-0.1,6.5c0,1.1,0,2.2,0,3.4c-0.4-0.1-0.3-0.4-0.3-0.6c0-2.9,0-5.8,0-8.7
		C514.4,182.2,514.3,181.9,514.7,181.8z"/>
	<path class="st1" d="M527.9,181.4c1.7,0.2,3.4,0,5.1,0.1c1,0,2,0,3,0c-0.1,0.3-0.4,0.2-0.7,0.3c-2.3,0-4.6,0-6.8,0
		C528.3,181.7,527.9,181.8,527.9,181.4z"/>
	<path class="st1" d="M522.9,31.6c0,3.3,0,6.6,0,9.9c0,0.4,0,0.9,0,1.3c-0.3-0.2-0.2-0.5-0.2-0.8c0-3.2,0-6.4,0-9.7
		C522.7,32.1,522.6,31.7,522.9,31.6z"/>
	<path class="st1" d="M494,242.2c-0.4,0.1-0.4-0.2-0.4-0.5c0-2.6-0.2-5.3-0.1-7.9c0-0.6-0.2-0.8-0.7-0.7c-0.2,0-0.4,0-0.5,0
		c-1.4-0.1-1.4,0-2,1.2c-1.4,2.9-3.2,5.7-4.8,8.5c-1.7,2.9-3.9,5.5-5.9,8.2c-0.6,0.8-1.3,1.7-2.2,2.3c-0.3,0.2-0.5,0.4-0.7,0.6
		c-2,2.7-4.4,5-7,7.1c-2.5,2.1-5.1,4.1-7.7,6.1c-1.1,0.8-2.3,1.5-3.6,2c-0.9,0.3-1.7,0.9-2.4,1.4c-1.7,1.1-3.5,1.8-5.4,2.6
		c-1.7,0.7-3.6,1.2-5.3,1.7c-1.8,0.6-3.6,1-5.3,1.8c-1.2,0.5-2.6,0.7-3.9,0.9c-1.6,0.2-3.1,0.7-4.6,1c-3.1,0.6-6.2,0.9-9.4,0.7
		c-2.2-0.1-4.5,0.1-6.7,0.1c-1.7,0.1-3.3,0-5-0.2c-1.7-0.2-3.4-0.4-5.1-0.4c-1,0-1.9-0.3-2.9-0.3c-0.3,0-0.5-0.3-0.8-0.4
		c-1-0.4-2-0.6-3-1c-2.5-1-5.2-1.4-7.8-2.4c-3.1-1.2-6.3-2.3-9.2-3.9c-1.3-0.7-2.5-1.5-3.8-2.3c-1.5-0.9-3-1.9-4.6-2.9
		c-3.3-2-6.1-4.6-8.7-7.4c-2.2-2.5-4.5-5-6.5-7.6c-1.1-1.4-2.2-2.8-3.3-4.2c-1.1-1.4-2.1-2.9-3.2-4.3c-1.9-2.5-3.4-5.3-4.5-8.2
		c-1-2.3-2-4.6-2.9-7c-0.3-0.7-0.4-1.5-0.6-2.3c-0.5-1.6-1.1-3.2-1.7-4.7c-0.7-1.8-1.1-3.7-1.6-5.6c-0.5-1.8-0.5-3.6-0.9-5.4
		c-0.1-0.6,0-1.4,0-2c0-1.1-0.1-2.1-0.2-3.2c-0.4-3.6-0.1-7.1,0-10.7c0.1-3.6,1.1-7,2.1-10.4c0.9-3.1,2.2-6,3.3-9
		c0.5-1.5,1.5-2.8,2.3-4.2c1.5-2.8,3-5.6,4.8-8.3c4.2-6.1,9.3-11.2,15.3-15.5c5.2-3.7,10.9-6.4,17.1-8.2c7.2-2.1,14.6-2.8,22.1-2.1
		c7.6,0.7,14.7,2.8,21.5,6.2c1.6,0.8,3.2,1.7,4.7,2.6c1.2,0.7,2.5,1,3.9,0.9c2.5-0.1,4.9,0.4,7.2,1.3c0.2,0.1,0.4,0.2,0.6,0.3
		c0.2,0.1,0.4,0.3,0.3,0.7c-0.1,0.3-0.4,0.2-0.6,0.3c-2.3,0.4-4.5-0.1-6.8,0.1c-2.8,0.3-5.5,1.1-7.6,2.9c-1.9,1.6-3.7,3.5-4.2,6
		c-0.2,1,0,2,0.5,2.9c0.4,0.6,1,0.9,1.8,1c2.2,0.2,4.3-0.5,6.5-1c1.6-0.3,3.2-0.1,4.8,0c0.3,0,0.6,0.2,0.7,0.5
		c0.8,1.3,2.2,1.9,3.3,2.9c1.9,1.6,4.1,2.4,6.5,2.8c2.3,0.4,4.4,1.2,6.6,1.8c1.1,0.3,1.3,1.5,0.5,2.3c-1,1.1-2.3,1.5-3.6,1.5
		c-1.2,0-2.4,0.3-3.6,0.4c-0.5,0-0.9,0.1-1.4,0c-0.9-0.2-1.7,0.1-2.5,0.5c-0.7,0.4-0.8,1.8-0.2,2.3c0.5,0.5,1,0.7,1.7,0.8
		c2.4,0.3,4.8,0.3,7.2,1c0.6,0.2,1.1,0.5,1.3,1.1c0.7,1.7,0.1,2.9-1.6,3.4c-0.7,0.2-1.4,0.4-2.1,0.3c-1.2-0.1-2.3,0.4-3.5,0.7
		c-0.7,0.1-0.9,0.7-0.8,1.3c0.1,0.7,0.7,1,1.3,1.1c1.1,0.2,2.3,0.2,3.4,0.2c1.2,0,2.4,0.2,3.5,0.6c0.6,0.2,0.8,0.7,0.6,1.2
		c-0.3,1.1-0.8,1.9-2,2.3c-2.3,0.8-4.7,0.7-7.1,1.3c-0.4,0.1-0.8,0.2-1.2,0.3c-1,0.2-2.1,0.2-3.1,0c-0.8-0.1-1.4,0.1-1.7,0.7
		c-0.3,0.6-0.1,1.2,0.7,1.7c1,0.7,2.2,0.8,3.3,1c1.6,0.3,3.1,1,4.6,1.8c0.2,0.1,0.4,0.3,0.5,0.6c0.1,0.4,0.3,0.8,0.6,1.2
		c0.3,0.5,0.8,1,0.5,1.5c-0.3,0.6-1,1.1-1.7,1.1c-1.9,0.1-3.7,0.1-5.6-0.2c-1.1-0.2-2.2-0.3-3.3-0.3c-1.3,0-2.1,0.8-2.4,1.8
		c-0.3,0.9-0.8,1.2-1.6,1.2c-2.8-0.1-5.2,1.1-7.8,1.7c-2.1,0.5-3.9,1.8-6.1,2.5c2.1,0.2,3.9,0.4,5.7,1c2.2,0.7,3.7,2.1,4.6,4.2
		c0.1,0.3,0.3,0.6,0,0.8c-0.3,0.2-0.5-0.1-0.7-0.3c-2-1.7-4.4-2.6-6.9-3.4c-2-0.6-3.9-0.8-5.8-0.3c-2.4,0.6-4.3,2-5.8,3.9
		c-0.9,1.2-1.7,2.3-2.1,3.8c-0.5,1.9-0.2,3.6,0.7,5.3c0.9,1.7,2.4,1.9,4,2.2c2.1,0.4,4.1,0.9,6.2,1.1c0.8,0.1,1.6,0.1,2.3,0.1
		c2.4,0,4.9-0.1,7.3,0.2c2,0.2,4.1,0.5,6.1,0.7c1.4,0.1,2.7,0.3,4.1,0.4c2.4,0.2,4.8,0.5,7.2,0.5c2.8,0,5.6,0.1,8.3,0
		c3.3-0.2,6.6-0.4,9.9-0.7c2.2-0.3,4.3-0.8,6.4-1.5c0.3-0.1,0.5-0.3,0.6-0.7c0.2-0.9,0.1-1.7,0.1-2.6c0.1-1.9,0.2-3.8,0.2-5.6
		c0-0.3-0.1-0.5-0.2-0.9c-0.7,0.6-1.4,1.2-2.1,1.7c-1.5,1-3,1.9-4.9,2.3c-1.9,0.4-3.7,0.6-5.6,1c-0.6,0.1-1.4-0.1-2.2-0.2
		c-3.2-0.3-6.4-0.5-9.5-1c-2.9-0.4-5.7-0.1-8.6-0.5c-1.1-0.1-2.1-0.3-3.1-0.8c-0.2-0.1-0.6-0.2-0.5-0.6c0.1-0.3,0.3-0.6,0.6-0.7
		c0.3,0,0.6-0.1,0.9,0c2.6,0.5,5.1,0.1,7.6-0.1c1-0.1,2,0.2,3,0.3c2.3,0.2,4.6,0.6,6.9,0.7c2,0,3.9,0.5,5.9,0.2
		c0.6-0.1,1.2-0.2,1.7-0.5c1.3-0.5,2.8-0.6,4.2-1c1.5-0.5,2.6-1.4,3.7-2.4c0.9-0.8,1.7-1.8,2.6-2.6c1.8-1.8,2.8-4,3.5-6.3
		c1.1-3.8,1.7-7.7,2.9-11.5c0.3-1,0.7-1.9,1.1-2.8c1.4-3,2.5-6.2,4.8-8.7c1.2-1.3,2.2-2.8,3.3-4.1c1.4-1.6,2.2-3.4,2.6-5.5
		c0.3-1.3,0.7-2.7,0.4-4.1c0-0.2,0-0.4,0.2-0.5c0.2-0.1,0.4,0.1,0.5,0.3c1.3,1.3,1.8,2.8,1.5,4.6c-0.6,3.7-2.3,6.9-4.9,9.5
		c-4.4,4.4-7.1,9.8-8.4,15.8c-0.5,2.1-1,4.2-1.4,6.3c-0.6,3.4-2.4,6.1-4.6,8.6c-0.3,0.3-0.4,0.7-0.6,1c0.6,0.5,1.4,0.4,2.1,0.4
		c1.7,0,3.5,0,5.2,0c0.4,0,0.4-0.3,0.8-0.4c0.5,0,0.8-0.4,1-0.9c0.5-1.8,1-3.5,1.4-5.3c0.3-1.6,1-3.1,1.8-4.5c1.3-2.7,2.7-5.3,4-8
		c0.6-1.2,1.2-2.4,1.8-3.5c0.9-1.7,1.6-3.5,2.3-5.2c0.5-1.2,1.1-2.5,1.6-3.7c0.1-0.2,0.2-0.6,0.6-0.5c0.3,0.1,0.5,0.4,0.5,0.7
		c0.1,0.9,0.2,1.7,0.2,2.6c0,5-0.1,9.9-0.3,14.9c-0.1,3.8-1.1,7.4-1.5,11.1c-0.2,1.9-0.7,3.8-1.3,5.7c-0.8,2.8-1.3,5.6-1.2,8.5
		c0,1.1,0,2.2-0.1,3.3c-0.1,1.1,0.1,1.4,0.2,3.1c-0.1,0.3,0.2,0.3,0.4,0.3c0.4,0,0.8,0,1.3,0c2.1,0,4.3,0,6.4,0c0.4,0,0.6,0,0.6,0.5
		c0,3.3,0,6.5,0,9.8c-0.4-0.3-0.7,0-1.1,0c-2.8,0-5.5,0-8.3,0C494.4,242,494.1,241.8,494,242.2z M478.1,216.2
		c-0.4,0.1-0.3,0.4-0.3,0.6c0,3.6,0,7.1,0,10.7c0,0.2-0.1,0.5,0.3,0.6c1.6,0,3.2,0,4.8,0c0.6,0,1,0.2,0.9,0.9
		c-0.1,0.5-0.2,1,0.1,1.5c0.2,0.2,0.4,0.2,0.6,0.2c2.5,0,5,0,7.5,0c0.2,0,0.5,0.1,0.6-0.2c0.2-0.2,0.1-0.5,0.1-0.8c0-4.3,0-8.6,0-13
		c0-0.6-0.1-0.8-0.7-0.7C487.4,216.2,482.7,216.2,478.1,216.2z M481.6,234.3C481.6,234.3,481.6,234.3,481.6,234.3c0-1.1,0-2.3,0-3.4
		c0-0.4-0.1-0.5-0.5-0.5c-2.1,0-4.3,0-6.4,0c-0.4,0-0.6,0.1-0.6,0.5c0,2.2,0,4.4,0,6.7c0,0.5,0.1,0.6,0.6,0.6c2.1,0,4.2,0,6.3,0
		c0.4,0,0.6-0.1,0.6-0.6C481.6,236.5,481.6,235.4,481.6,234.3z M498.8,234.4c-0.7,0-1.4,0-2,0c-0.4,0-0.5,0.1-0.5,0.5
		c0,1.4,0,2.7,0,4.1c0,0.4,0.1,0.5,0.5,0.5c1.4,0,2.7,0,4.1,0c0.4,0,0.5-0.1,0.5-0.5c0-1.4,0-2.7,0-4.1c0-0.4-0.2-0.5-0.6-0.5
		C500.1,234.4,499.5,234.4,498.8,234.4z M496.6,214.4c0.5-1.1,0.6-2.2,0.6-3.4c0-0.1-0.1-0.3-0.2-0.3c-0.2,0-0.2,0.1-0.3,0.2
		C496.3,212.1,496.4,213.3,496.6,214.4z"/>
	<path class="st1" d="M526,223.4c-3.7,0-7.4,0-11.1,0c-0.5,0-0.5-0.2-0.5-0.6c0-2,0-4,0-6c0-0.5-0.2-0.6-0.6-0.6c-2.6,0-5.1,0-7.7,0
		c-0.5,0-0.6-0.2-0.6-0.7c0-4,0-8,0-12c0-0.7,0.2-0.8,1.5-0.6c2.5,0.3,5,0.4,7.5,0.3c4.7-0.2,5.4-0.9,5.4,0.3c0,2.1,0,4.3,0,6.4
		c0,0.6,0.5,1,1.1,1c1.7-0.2,3.5-0.1,5.2-0.1C526,215.2,526,219.3,526,223.4z M512.4,205.8c-1.3,0-2.6,0-3.8,0
		c-0.5,0-0.6,0.1-0.6,0.6c0,2.2,0,4.4,0,6.6c0,0.4,0.1,0.6,0.6,0.6c2.5,0,5.1,0,7.6,0c0.5,0,0.6-0.1,0.6-0.6c0-2.2,0-4.4,0-6.6
		c0-0.4-0.1-0.6-0.6-0.6C514.9,205.9,513.7,205.8,512.4,205.8z M523.3,217.2c0-0.9,0-1.9,0-2.8c0-0.4-0.1-0.6-0.6-0.6
		c-0.7,0-1.4,0-2.1,0c-0.4,0-0.5,0.1-0.5,0.5c0,0.7,0,1.5,0,2.2c0,0.6-0.1,0.8-0.7,0.8c-0.6-0.1-1.3,0-1.9,0c-0.4,0-0.6,0.1-0.6,0.5
		c0,0.8,0,1.6,0,2.4c0,0.4,0.1,0.5,0.5,0.5c1.8,0,3.5,0,5.3,0c0.5,0,0.6-0.2,0.6-0.6C523.3,219.1,523.3,218.2,523.3,217.2z"/>
	<path class="st0" d="M514.7,82.3c2.9,0,5.9,0,8.8,0c0.6,0,0.8,0.1,0.8,0.8c0,5.6,0,11.2,0,16.9c0,0.6-0.2,0.7-0.7,0.7
		c-5.9,0-11.8,0-17.7,0c-0.6,0-0.8-0.1-0.8-0.7c0-5.6,0-11.3,0-16.9c0-0.6,0.2-0.7,0.7-0.7C508.8,82.3,511.7,82.3,514.7,82.3z
		 M514.7,97.9c2,0,4.1,0,6.1,0c0.5,0,0.7-0.1,0.7-0.6c0-3.8,0-7.7,0-11.5c0-0.5-0.1-0.6-0.6-0.6c-4.1,0-8.2,0-12.3,0
		c-0.5,0-0.6,0.2-0.6,0.7c0,3.8,0,7.6,0,11.4c0,0.5,0.1,0.7,0.7,0.6C510.6,97.8,512.6,97.9,514.7,97.9z"/>
	<path class="st1" d="M496.8,253.3c0,2.1,0,4.1,0,6.2c0,0.6-0.2,0.6-0.6,0.6c-2-0.1-4-0.4-5.9-0.2c-1.8,0.2-3.7,0.2-5.6,0.2
		c-0.4,0-0.8-0.3-0.7-0.7c0-4.1,0-8.3,0-12.4c0-0.4,0.1-0.6,0.5-0.6c3.9-0.1,7.7-0.3,11.6-0.2c0.4,0,0.8,0.4,0.8,0.8
		C496.7,249.1,496.7,251.2,496.8,253.3C496.7,253.3,496.8,253.3,496.8,253.3z M486.2,257.3c2.6,0,5.1,0,7.7,0c0.5,0,0.7-0.1,0.7-0.7
		c0-2.7,0-5.4,0-8.1c0-0.5-0.1-0.7-0.6-0.7c-2.4,0-4.8,0-7.1,0c-0.2,0-0.5,0-0.7,0.1c-0.2,0.1-0.2,0.3-0.2,0.5c0,2.7,0,5.4,0,8.1
		C485.9,257,485.9,257.2,486.2,257.3z"/>
	<path class="st1" d="M476.8,158.1c2.1-0.2,4.1,0.8,5.4,3.2c0.7,1.2,1,2.4,0.8,3.8c-0.2,1.4-0.4,2.7-1,4c-1.2,2.6-3.6,4-6.5,3.9
		c-3.1-0.2-5.5-2.8-6-4.8c-0.6-2.4-0.6-4.7,0.8-6.8C471.7,159.2,473.6,158,476.8,158.1z M470.8,165.8c0,1.4,0.6,2.6,1.3,3.7
		c1.4,1.9,3.3,2.3,5.5,1.3c2.6-1.2,3.4-3.7,3.2-6c-0.1-2.1-1.9-4.1-3.7-4.4C473.7,159.6,470.8,162.2,470.8,165.8z"/>
	<path class="st1" d="M494,242.2c0.2-0.4,0.5-0.2,0.7-0.2c2.8,0,5.5,0,8.3,0c0.4,0,0.7-0.4,1.1,0c0,0.3-0.1,0.3-0.3,0.3
		C500.5,242.2,497.2,242.2,494,242.2z"/>
	<path class="st1" d="M526,223.4c0-4.1,0-8.3,0-12.4c0.4,0.1,0.2,0.4,0.2,0.6c0,3.8,0,7.5,0,11.3C526.2,223.1,526.4,223.4,526,223.4
		z"/>
	<path class="st1" d="M483.3,213.5C483.3,213.4,483.3,213.4,483.3,213.5c0.1,0,0.1,0,0.1,0C483.4,213.5,483.4,213.5,483.3,213.5
		C483.3,213.5,483.3,213.5,483.3,213.5z"/>
	<path class="st1" d="M478,216.2c0,4,0,8,0,11.9c-0.4-0.1-0.3-0.4-0.3-0.6c0-3.6,0-7.1,0-10.7C477.7,216.6,477.6,216.3,478,216.2z"
		/>
	<path class="st1" d="M496.6,214.4c-0.2-1.2-0.3-2.3,0.2-3.4c0.1-0.1,0.1-0.2,0.3-0.2c0.2,0,0.2,0.1,0.2,0.3
		C497.2,212.2,497.1,213.3,496.6,214.4z"/>
	<path class="st1" d="M483.9,230.6c2.9,0,5.9,0,8.8,0c-0.2,0.2-0.4,0.2-0.6,0.2c-2.5,0-5,0-7.5,0C484.3,230.8,484,230.9,483.9,230.6
		z"/>
	<path class="st1" d="M486.1,248.1c0,3.1,0,6.2,0,9.2c-0.3-0.1-0.2-0.4-0.2-0.6c0-2.7,0-5.4,0-8.1
		C485.9,248.4,485.9,248.2,486.1,248.1z"/>
</g>
</svg>
